<mxfile host="Electron" agent="Mozilla/5.0 (Windows NT 10.0; Win64; x64) AppleWebKit/537.36 (KHTML, like Gecko) draw.io/25.0.1 Chrome/128.0.6613.186 Electron/32.2.6 Safari/537.36" version="25.0.1" pages="3">
  <diagram id="C5RBs43oDa-KdzZeNtuy" name="Overview">
    <mxGraphModel dx="5207" dy="3087" grid="1" gridSize="10" guides="1" tooltips="1" connect="1" arrows="1" fold="1" page="1" pageScale="2" pageWidth="1000" pageHeight="1000" math="0" shadow="0">
      <root>
        <mxCell id="WIyWlLk6GJQsqaUBKTNV-0" />
        <mxCell id="WIyWlLk6GJQsqaUBKTNV-1" parent="WIyWlLk6GJQsqaUBKTNV-0" />
        <mxCell id="6Xnway8nB9_LhPMWtPpP-48" value="Add explanation that we only include at max 3 aerobic exercises per workout&lt;div&gt;&lt;br&gt;&lt;/div&gt;&lt;div&gt;This is because we need a limit for our algorithms, and 3 different exercises seems like it would be enough to not feel boring, but similarily not too overwhelming&lt;/div&gt;" style="whiteSpace=wrap;html=1;fontFamily=lexend light;fontSize=14;spacingBottom=0;spacingLeft=15;spacingRight=15;fillColor=#f0a30a;strokeColor=#BD7000;fontColor=#000000;" parent="WIyWlLk6GJQsqaUBKTNV-1" vertex="1">
          <mxGeometry x="1070" y="1610" width="290" height="190" as="geometry" />
        </mxCell>
        <mxCell id="6Xnway8nB9_LhPMWtPpP-158" value="&lt;div&gt;NOTE: Since &quot;reverse workout exercise order&quot;is placed after &quot;fill workouts with sets&quot;,&amp;nbsp;&lt;span style=&quot;background-color: initial;&quot;&gt;resistance training exercises are prioritized when&amp;nbsp;&lt;/span&gt;&lt;span style=&quot;background-color: initial;&quot;&gt;adding extra sets, since they are first in the list&amp;nbsp;&lt;/span&gt;&lt;span style=&quot;background-color: initial;&quot;&gt;and thus get filled before aerobic exercises.&amp;nbsp;&lt;/span&gt;&lt;/div&gt;&lt;div&gt;&lt;br&gt;&lt;/div&gt;&lt;div&gt;This is alright,&amp;nbsp;&lt;span style=&quot;background-color: initial;&quot;&gt;because aerobic exercsing is much more flexible and&amp;nbsp;&lt;/span&gt;&lt;span style=&quot;background-color: initial;&quot;&gt;can be done every day because of lower recovery times.&lt;/span&gt;&lt;/div&gt;" style="whiteSpace=wrap;html=1;fontFamily=lexend light;fontSize=14;spacingBottom=0;spacingLeft=15;spacingRight=15;fillColor=#f0a30a;fontColor=#000000;strokeColor=#BD7000;" parent="WIyWlLk6GJQsqaUBKTNV-1" vertex="1">
          <mxGeometry x="470" y="466.25000000000006" width="460" height="200" as="geometry" />
        </mxCell>
        <mxCell id="6Xnway8nB9_LhPMWtPpP-160" value="&lt;div&gt;Talk about the edge case where you can only train 2 days right after each other for only a short time, which would let you only do one resistance training day because of the way our algortihm worked.&lt;/div&gt;&lt;div&gt;&lt;br&gt;&lt;/div&gt;&lt;div&gt;To combat this, you could calculate rest days as&lt;/div&gt;&lt;div&gt;&amp;nbsp;full recovery time * sets / daily max sets&lt;/div&gt;&lt;div&gt;&lt;br&gt;&lt;/div&gt;&lt;div&gt;e.g. doing 4 sets and having a recovery time of 3 days (a beginner), would give you a recovery time of 4 * 3 / 6 = 2 days.&lt;/div&gt;&lt;div&gt;&lt;br&gt;&lt;/div&gt;&lt;div&gt;We chose to not implement this feature, as we cannot find sources on that it is okay to make such a calculation (all sources only talk about recovery from a FULL workout, not a parital one like this one).&lt;/div&gt;" style="whiteSpace=wrap;html=1;fontFamily=lexend light;fontSize=14;spacingBottom=0;spacingLeft=15;spacingRight=15;fillColor=#fa6800;fontColor=#000000;strokeColor=#C73500;" parent="WIyWlLk6GJQsqaUBKTNV-1" vertex="1">
          <mxGeometry x="440" y="734.75" width="500" height="250" as="geometry" />
        </mxCell>
        <mxCell id="BbClbvkXhS3ZI8aWRDyh-3" value="Research what the max weekly sets are for more experienced lifters" style="whiteSpace=wrap;html=1;fontFamily=lexend light;fontSize=14;spacingBottom=0;spacingLeft=15;spacingRight=15;fillColor=#e51400;strokeColor=#B20000;fontColor=#ffffff;" parent="WIyWlLk6GJQsqaUBKTNV-1" vertex="1">
          <mxGeometry x="1328.75" y="789.9999999999999" width="290" height="77.5" as="geometry" />
        </mxCell>
        <mxCell id="BbClbvkXhS3ZI8aWRDyh-8" value="Explain that resistance exercises are added first, because they are pretty inflexible because of their long recoery times, as opposed to aerobic exercises that can be performed with only 24 hours between sessions." style="whiteSpace=wrap;html=1;fontFamily=lexend light;fontSize=14;spacingBottom=0;spacingLeft=15;spacingRight=15;fillColor=#f0a30a;fontColor=#000000;strokeColor=#BD7000;" parent="WIyWlLk6GJQsqaUBKTNV-1" vertex="1">
          <mxGeometry x="470" y="70" width="460" height="130" as="geometry" />
        </mxCell>
        <mxCell id="BbClbvkXhS3ZI8aWRDyh-9" value="Add to the final print workout function, that the workouts are split into days, but they take into accoutn that you exercise at the same time each day, so that the recovery time between e.g. day 1 and 2 is 24 hours (not e.g. 12 hours, if you work out in the evening the first day, then work out in the morning the next day)." style="whiteSpace=wrap;html=1;fontFamily=lexend light;fontSize=14;spacingBottom=0;spacingLeft=15;spacingRight=15;fillColor=#f0a30a;fontColor=#000000;strokeColor=#BD7000;" parent="WIyWlLk6GJQsqaUBKTNV-1" vertex="1">
          <mxGeometry x="470" y="267.50000000000006" width="460" height="130" as="geometry" />
        </mxCell>
        <mxCell id="36rZU1EPFzZdWYGmBfyX-3" style="edgeStyle=orthogonalEdgeStyle;rounded=0;orthogonalLoop=1;jettySize=auto;html=1;exitX=0.5;exitY=1;exitDx=0;exitDy=0;entryX=0.5;entryY=0;entryDx=0;entryDy=0;" parent="WIyWlLk6GJQsqaUBKTNV-1" source="36rZU1EPFzZdWYGmBfyX-4" target="36rZU1EPFzZdWYGmBfyX-20" edge="1">
          <mxGeometry relative="1" as="geometry" />
        </mxCell>
        <mxCell id="36rZU1EPFzZdWYGmBfyX-4" value="Reverse workout exercise order" style="whiteSpace=wrap;html=1;fontFamily=lexend light;fontSize=14;spacingBottom=0;spacingLeft=15;spacingRight=15;" parent="WIyWlLk6GJQsqaUBKTNV-1" vertex="1">
          <mxGeometry x="180" y="836.84" width="142.5" height="75" as="geometry" />
        </mxCell>
        <mxCell id="36rZU1EPFzZdWYGmBfyX-5" style="edgeStyle=orthogonalEdgeStyle;rounded=0;orthogonalLoop=1;jettySize=auto;html=1;exitX=0.5;exitY=1;exitDx=0;exitDy=0;entryX=0.5;entryY=0;entryDx=0;entryDy=0;fontFamily=lexend light;fontSize=14;fontColor=#ffffff;" parent="WIyWlLk6GJQsqaUBKTNV-1" source="36rZU1EPFzZdWYGmBfyX-6" target="36rZU1EPFzZdWYGmBfyX-8" edge="1">
          <mxGeometry relative="1" as="geometry" />
        </mxCell>
        <mxCell id="36rZU1EPFzZdWYGmBfyX-6" value="Create&amp;nbsp;&lt;div&gt;workouts&lt;/div&gt;" style="whiteSpace=wrap;html=1;shape=parallelogram;boundedLbl=1;backgroundOutline=1;size=15;fillColor=#0050ef;fontColor=#ffffff;strokeColor=#001DBC;fontFamily=lexend light;fontSize=14;fixedSize=1;perimeter=parallelogramPerimeter;" parent="WIyWlLk6GJQsqaUBKTNV-1" vertex="1">
          <mxGeometry x="190" y="101.25" width="120" height="80" as="geometry" />
        </mxCell>
        <mxCell id="36rZU1EPFzZdWYGmBfyX-8" value="Get workout rules" style="shape=parallelogram;whiteSpace=wrap;html=1;fixedSize=1;strokeWidth=1;align=center;verticalAlign=middle;spacingLeft=15;spacingRight=15;spacingBottom=0;fontFamily=lexend light;fontSize=14;rounded=0;perimeter=parallelogramPerimeter;fillColor=#d80073;fontColor=#ffffff;strokeColor=#A50040;" parent="WIyWlLk6GJQsqaUBKTNV-1" vertex="1">
          <mxGeometry x="180" y="211.25" width="140" height="60" as="geometry" />
        </mxCell>
        <mxCell id="36rZU1EPFzZdWYGmBfyX-9" style="edgeStyle=orthogonalEdgeStyle;rounded=0;orthogonalLoop=1;jettySize=auto;html=1;exitX=0.5;exitY=1;exitDx=0;exitDy=0;entryX=0.5;entryY=0;entryDx=0;entryDy=0;fontFamily=lexend light;fontSize=14;fontColor=#ffffff;" parent="WIyWlLk6GJQsqaUBKTNV-1" source="36rZU1EPFzZdWYGmBfyX-10" target="36rZU1EPFzZdWYGmBfyX-12" edge="1">
          <mxGeometry relative="1" as="geometry" />
        </mxCell>
        <mxCell id="36rZU1EPFzZdWYGmBfyX-10" value="Get resistance training days" style="shape=parallelogram;whiteSpace=wrap;html=1;fixedSize=1;strokeWidth=1;align=center;verticalAlign=middle;spacingLeft=15;spacingRight=15;spacingBottom=0;fontFamily=lexend light;fontSize=14;fillColor=#d80073;fontColor=#ffffff;strokeColor=#A50040;perimeter=parallelogramPerimeter;" parent="WIyWlLk6GJQsqaUBKTNV-1" vertex="1">
          <mxGeometry x="181.5" y="391.25000000000006" width="137" height="60" as="geometry" />
        </mxCell>
        <mxCell id="36rZU1EPFzZdWYGmBfyX-11" style="edgeStyle=orthogonalEdgeStyle;rounded=0;orthogonalLoop=1;jettySize=auto;html=1;exitX=0.5;exitY=1;exitDx=0;exitDy=0;entryX=0.5;entryY=0;entryDx=0;entryDy=0;fontFamily=lexend light;fontSize=14;fontColor=#ffffff;" parent="WIyWlLk6GJQsqaUBKTNV-1" source="36rZU1EPFzZdWYGmBfyX-12" target="36rZU1EPFzZdWYGmBfyX-14" edge="1">
          <mxGeometry relative="1" as="geometry" />
        </mxCell>
        <mxCell id="36rZU1EPFzZdWYGmBfyX-12" value="Add resistance exercises" style="shape=parallelogram;whiteSpace=wrap;html=1;fixedSize=1;strokeWidth=1;align=center;verticalAlign=middle;spacingLeft=15;spacingRight=15;spacingBottom=0;fontFamily=lexend light;fontSize=14;fillColor=#d80073;fontColor=#ffffff;strokeColor=#A50040;perimeter=parallelogramPerimeter;" parent="WIyWlLk6GJQsqaUBKTNV-1" vertex="1">
          <mxGeometry x="181.5" y="481.25000000000006" width="137" height="60" as="geometry" />
        </mxCell>
        <mxCell id="36rZU1EPFzZdWYGmBfyX-13" style="edgeStyle=orthogonalEdgeStyle;rounded=0;orthogonalLoop=1;jettySize=auto;html=1;exitX=0.5;exitY=1;exitDx=0;exitDy=0;entryX=0.5;entryY=0;entryDx=0;entryDy=0;fontFamily=lexend light;fontSize=14;fontColor=#ffffff;" parent="WIyWlLk6GJQsqaUBKTNV-1" source="aVkhwRdwpBsDJl1G8z6D-26" target="36rZU1EPFzZdWYGmBfyX-16" edge="1">
          <mxGeometry relative="1" as="geometry" />
        </mxCell>
        <mxCell id="36rZU1EPFzZdWYGmBfyX-14" value="Get aerobic training days" style="shape=parallelogram;whiteSpace=wrap;html=1;fixedSize=1;strokeWidth=1;align=center;verticalAlign=middle;spacingLeft=15;spacingRight=15;spacingBottom=0;fontFamily=lexend light;fontSize=14;fillColor=#d80073;fontColor=#ffffff;strokeColor=#A50040;perimeter=parallelogramPerimeter;" parent="WIyWlLk6GJQsqaUBKTNV-1" vertex="1">
          <mxGeometry x="181.5" y="571.25" width="137" height="60" as="geometry" />
        </mxCell>
        <mxCell id="36rZU1EPFzZdWYGmBfyX-15" style="edgeStyle=orthogonalEdgeStyle;rounded=0;orthogonalLoop=1;jettySize=auto;html=1;exitX=0.5;exitY=1;exitDx=0;exitDy=0;entryX=0.5;entryY=0;entryDx=0;entryDy=0;fontFamily=lexend light;fontSize=14;fontColor=#ffffff;" parent="WIyWlLk6GJQsqaUBKTNV-1" source="36rZU1EPFzZdWYGmBfyX-16" target="36rZU1EPFzZdWYGmBfyX-4" edge="1">
          <mxGeometry relative="1" as="geometry" />
        </mxCell>
        <mxCell id="36rZU1EPFzZdWYGmBfyX-16" value="Fill workouts with sets" style="shape=parallelogram;whiteSpace=wrap;html=1;fixedSize=1;strokeWidth=1;align=center;verticalAlign=middle;spacingLeft=15;spacingRight=15;spacingBottom=0;fontFamily=lexend light;fontSize=14;fillColor=#d80073;fontColor=#ffffff;strokeColor=#A50040;perimeter=parallelogramPerimeter;" parent="WIyWlLk6GJQsqaUBKTNV-1" vertex="1">
          <mxGeometry x="182.75" y="745.14" width="137" height="60" as="geometry" />
        </mxCell>
        <mxCell id="36rZU1EPFzZdWYGmBfyX-17" style="edgeStyle=orthogonalEdgeStyle;rounded=0;orthogonalLoop=1;jettySize=auto;html=1;exitX=0.5;exitY=1;exitDx=0;exitDy=0;entryX=0.5;entryY=0;entryDx=0;entryDy=0;fontFamily=lexend light;fontSize=14;fontColor=#ffffff;" parent="WIyWlLk6GJQsqaUBKTNV-1" source="36rZU1EPFzZdWYGmBfyX-18" target="36rZU1EPFzZdWYGmBfyX-10" edge="1">
          <mxGeometry relative="1" as="geometry" />
        </mxCell>
        <mxCell id="36rZU1EPFzZdWYGmBfyX-18" value="Add general warm-ups to all workout durations" style="whiteSpace=wrap;html=1;fontFamily=lexend light;fontSize=14;spacingBottom=0;spacingLeft=15;spacingRight=15;" parent="WIyWlLk6GJQsqaUBKTNV-1" vertex="1">
          <mxGeometry x="170" y="296.25000000000006" width="160" height="70" as="geometry" />
        </mxCell>
        <mxCell id="36rZU1EPFzZdWYGmBfyX-20" value="Return" style="ellipse;whiteSpace=wrap;html=1;rounded=0;fillColor=#a20025;fontColor=#ffffff;strokeColor=#6F0000;fontFamily=lexend light;fontSize=14;spacingBottom=0;spacingLeft=15;spacingRight=15;" parent="WIyWlLk6GJQsqaUBKTNV-1" vertex="1">
          <mxGeometry x="211.25" y="940.14" width="80" height="80" as="geometry" />
        </mxCell>
        <mxCell id="36rZU1EPFzZdWYGmBfyX-21" style="edgeStyle=orthogonalEdgeStyle;rounded=0;orthogonalLoop=1;jettySize=auto;html=1;entryX=0.5;entryY=0;entryDx=0;entryDy=0;exitX=0.5;exitY=1;exitDx=0;exitDy=0;" parent="WIyWlLk6GJQsqaUBKTNV-1" source="36rZU1EPFzZdWYGmBfyX-8" target="36rZU1EPFzZdWYGmBfyX-18" edge="1">
          <mxGeometry relative="1" as="geometry">
            <mxPoint x="265" y="271.25000000000006" as="sourcePoint" />
          </mxGeometry>
        </mxCell>
        <mxCell id="36rZU1EPFzZdWYGmBfyX-204" style="edgeStyle=orthogonalEdgeStyle;rounded=0;orthogonalLoop=1;jettySize=auto;html=1;exitX=0.5;exitY=1;exitDx=0;exitDy=0;entryX=0.5;entryY=0;entryDx=0;entryDy=0;fontFamily=lexend light;fontSize=14;fontColor=default;" parent="WIyWlLk6GJQsqaUBKTNV-1" edge="1">
          <mxGeometry relative="1" as="geometry">
            <mxPoint x="3944.33" y="2537.69" as="targetPoint" />
          </mxGeometry>
        </mxCell>
        <mxCell id="ykD68FAz-AZpenLA8IzE-9" value="For the Implementation chapter:&lt;div&gt;&lt;br&gt;&lt;/div&gt;&lt;div&gt;I&#39;ve decided to not use lists because it becomes difficult to manage memory with them.&lt;/div&gt;&lt;div&gt;&lt;br&gt;&lt;/div&gt;&lt;div&gt;For example: I have a list of workouts. Each workout contains a list of exercises. If I free the list of workouts, the memory from the lists of exercises is leaked.&amp;nbsp;&lt;/div&gt;&lt;div&gt;&lt;br&gt;&lt;/div&gt;&lt;div&gt;A similar situation is with a list of resistance training workouts that each contain a list of missing muscle groups (to target).&lt;/div&gt;&lt;div&gt;&lt;br&gt;&lt;/div&gt;&lt;div&gt;So, if I used lists, I would have to make a lot of specific functions that disposed of the lists inside other lists. Then I&#39;d also have to keep track of the amount of elements.´&lt;/div&gt;&lt;div&gt;&lt;br&gt;&lt;/div&gt;&lt;div&gt;All in all, it becomes even more of a hassle and more complicated to deal with lists instead of arrays.&lt;/div&gt;&lt;div&gt;&lt;br&gt;&lt;/div&gt;&lt;div&gt;That&#39;s why I don&#39;t use lists in my code relating to workouts.&amp;nbsp;&amp;nbsp;&lt;/div&gt;" style="whiteSpace=wrap;html=1;fontFamily=lexend light;fontSize=14;spacingBottom=0;spacingLeft=15;spacingRight=15;fillColor=#f0a30a;fontColor=#000000;strokeColor=#BD7000;" parent="WIyWlLk6GJQsqaUBKTNV-1" vertex="1">
          <mxGeometry x="270" y="1049.69" width="460" height="390" as="geometry" />
        </mxCell>
        <mxCell id="bB_BcJhIjzea677D-l3r-0" value="Make sure to mark all fucntions and global variables that should not be used by other .c-files as static to ensure clean code. Also, write it into &quot;Design&quot; chapter.&amp;nbsp;" style="whiteSpace=wrap;html=1;fontFamily=lexend light;fontSize=14;spacingBottom=0;spacingLeft=15;spacingRight=15;fillColor=#e51400;strokeColor=#B20000;fontColor=#ffffff;" parent="WIyWlLk6GJQsqaUBKTNV-1" vertex="1">
          <mxGeometry x="570" y="1500.38" width="290" height="179.31" as="geometry" />
        </mxCell>
        <mxCell id="0qZmJ44rOw8FfiNEY0Dv-23" value="&lt;div&gt;Add to report: We try to add different exercises for the same muscle group to increase variation (so the trainee doesn&#39;t get bored), and because each variation uses slightly different muscles (e.g. stabillizer muscles), so you get a more balanced physique by doing different exercises for the same muscle group.&amp;nbsp;&lt;/div&gt;" style="whiteSpace=wrap;html=1;fontFamily=lexend light;fontSize=14;spacingBottom=0;spacingLeft=15;spacingRight=15;fillColor=#fa6800;fontColor=#000000;strokeColor=#C73500;" parent="WIyWlLk6GJQsqaUBKTNV-1" vertex="1">
          <mxGeometry x="1198.75" y="1090" width="420" height="250" as="geometry" />
        </mxCell>
        <mxCell id="aVkhwRdwpBsDJl1G8z6D-27" value="" style="edgeStyle=orthogonalEdgeStyle;rounded=0;orthogonalLoop=1;jettySize=auto;html=1;exitX=0.5;exitY=1;exitDx=0;exitDy=0;entryX=0.5;entryY=0;entryDx=0;entryDy=0;fontFamily=lexend light;fontSize=14;fontColor=#ffffff;" parent="WIyWlLk6GJQsqaUBKTNV-1" source="36rZU1EPFzZdWYGmBfyX-14" target="aVkhwRdwpBsDJl1G8z6D-26" edge="1">
          <mxGeometry relative="1" as="geometry">
            <mxPoint x="250" y="631" as="sourcePoint" />
            <mxPoint x="251" y="745" as="targetPoint" />
          </mxGeometry>
        </mxCell>
        <mxCell id="aVkhwRdwpBsDJl1G8z6D-26" value="Add aerobic exercises" style="shape=parallelogram;whiteSpace=wrap;html=1;fixedSize=1;strokeWidth=1;align=center;verticalAlign=middle;spacingLeft=15;spacingRight=15;spacingBottom=0;fontFamily=lexend light;fontSize=14;fillColor=#d80073;fontColor=#ffffff;strokeColor=#A50040;perimeter=parallelogramPerimeter;" parent="WIyWlLk6GJQsqaUBKTNV-1" vertex="1">
          <mxGeometry x="185.5" y="651.7" width="137" height="60" as="geometry" />
        </mxCell>
      </root>
    </mxGraphModel>
  </diagram>
  <diagram id="ZoYlsJ3A6WbkT4gptY1H" name="Jesp&#39;s Corner">
    <mxGraphModel dx="4463" dy="2646" grid="1" gridSize="10" guides="1" tooltips="1" connect="1" arrows="1" fold="1" page="1" pageScale="1" pageWidth="2000" pageHeight="2000" math="0" shadow="0">
      <root>
        <mxCell id="0" />
        <mxCell id="1" parent="0" />
        <mxCell id="tY5H8uWJdQBPKQoihqLW-1" style="edgeStyle=orthogonalEdgeStyle;rounded=0;orthogonalLoop=1;jettySize=auto;html=1;exitX=1;exitY=0.5;exitDx=0;exitDy=0;entryX=0;entryY=0.5;entryDx=0;entryDy=0;" edge="1" parent="1" source="tY5H8uWJdQBPKQoihqLW-2" target="tY5H8uWJdQBPKQoihqLW-15">
          <mxGeometry relative="1" as="geometry">
            <mxPoint x="570" y="2446.25" as="targetPoint" />
          </mxGeometry>
        </mxCell>
        <mxCell id="tY5H8uWJdQBPKQoihqLW-2" value="Get resistance training days" style="whiteSpace=wrap;html=1;fontFamily=lexend light;fontSize=14;fillColor=#0050ef;fontColor=#ffffff;strokeColor=#001DBC;shape=parallelogram;fixedSize=1;size=17.5;strokeWidth=1;spacingBottom=0;spacingLeft=15;spacingRight=15;perimeter=parallelogramPerimeter;" vertex="1" parent="1">
          <mxGeometry x="510" y="2337.5" width="140" height="70" as="geometry" />
        </mxCell>
        <mxCell id="tY5H8uWJdQBPKQoihqLW-3" style="edgeStyle=orthogonalEdgeStyle;rounded=0;orthogonalLoop=1;jettySize=auto;html=1;exitX=0.5;exitY=1;exitDx=0;exitDy=0;entryX=0.25;entryY=0;entryDx=0;entryDy=0;" edge="1" parent="1" source="tY5H8uWJdQBPKQoihqLW-4" target="tY5H8uWJdQBPKQoihqLW-155">
          <mxGeometry relative="1" as="geometry" />
        </mxCell>
        <mxCell id="tY5H8uWJdQBPKQoihqLW-4" value="Next day" style="whiteSpace=wrap;html=1;fontFamily=lexend light;fontSize=14;spacingBottom=0;spacingLeft=15;spacingRight=15;" vertex="1" parent="1">
          <mxGeometry x="810" y="2467.5200000000004" width="65.52" height="55" as="geometry" />
        </mxCell>
        <mxCell id="tY5H8uWJdQBPKQoihqLW-5" style="edgeStyle=orthogonalEdgeStyle;rounded=0;orthogonalLoop=1;jettySize=auto;html=1;exitX=0;exitY=0.5;exitDx=0;exitDy=0;entryX=0.25;entryY=1;entryDx=0;entryDy=0;" edge="1" parent="1" source="tY5H8uWJdQBPKQoihqLW-7" target="tY5H8uWJdQBPKQoihqLW-15">
          <mxGeometry relative="1" as="geometry" />
        </mxCell>
        <mxCell id="tY5H8uWJdQBPKQoihqLW-6" style="edgeStyle=orthogonalEdgeStyle;rounded=0;orthogonalLoop=1;jettySize=auto;html=1;exitX=1;exitY=0.5;exitDx=0;exitDy=0;entryX=0.75;entryY=1;entryDx=0;entryDy=0;fontFamily=lexend light;fontSize=14;fontColor=default;" edge="1" parent="1" source="tY5H8uWJdQBPKQoihqLW-7" target="tY5H8uWJdQBPKQoihqLW-155">
          <mxGeometry relative="1" as="geometry" />
        </mxCell>
        <mxCell id="tY5H8uWJdQBPKQoihqLW-7" value="Valid recovery time?" style="shape=hexagon;perimeter=hexagonPerimeter2;whiteSpace=wrap;html=1;fixedSize=1;size=14;fillColor=#008a00;fontColor=#ffffff;strokeColor=#005700;fontFamily=lexend light;fontSize=14;spacingBottom=0;spacingLeft=15;spacingRight=15;" vertex="1" parent="1">
          <mxGeometry x="786" y="2746.25" width="143.7" height="56.23" as="geometry" />
        </mxCell>
        <mxCell id="tY5H8uWJdQBPKQoihqLW-8" style="edgeStyle=orthogonalEdgeStyle;rounded=0;orthogonalLoop=1;jettySize=auto;html=1;exitX=0;exitY=0.5;exitDx=0;exitDy=0;entryX=0.25;entryY=1;entryDx=0;entryDy=0;" edge="1" parent="1" source="tY5H8uWJdQBPKQoihqLW-9" target="tY5H8uWJdQBPKQoihqLW-15">
          <mxGeometry relative="1" as="geometry" />
        </mxCell>
        <mxCell id="tY5H8uWJdQBPKQoihqLW-9" value="Add day" style="whiteSpace=wrap;html=1;fontFamily=lexend light;fontSize=14;spacingBottom=0;spacingLeft=15;spacingRight=15;" vertex="1" parent="1">
          <mxGeometry x="1012.75" y="2811.010000000001" width="96" height="42.5" as="geometry" />
        </mxCell>
        <mxCell id="tY5H8uWJdQBPKQoihqLW-10" value="Return" style="ellipse;whiteSpace=wrap;html=1;rounded=0;fillColor=#a20025;fontColor=#ffffff;strokeColor=#6F0000;fontFamily=lexend light;fontSize=14;spacingBottom=0;spacingLeft=15;spacingRight=15;" vertex="1" parent="1">
          <mxGeometry x="969.75" y="2335.0200000000004" width="80" height="80" as="geometry" />
        </mxCell>
        <mxCell id="tY5H8uWJdQBPKQoihqLW-11" style="edgeStyle=orthogonalEdgeStyle;rounded=0;orthogonalLoop=1;jettySize=auto;html=1;exitX=1;exitY=0.5;exitDx=0;exitDy=0;entryX=0;entryY=0.5;entryDx=0;entryDy=0;" edge="1" parent="1" source="tY5H8uWJdQBPKQoihqLW-15" target="tY5H8uWJdQBPKQoihqLW-10">
          <mxGeometry relative="1" as="geometry" />
        </mxCell>
        <mxCell id="tY5H8uWJdQBPKQoihqLW-12" value="END" style="edgeLabel;html=1;align=center;verticalAlign=middle;resizable=0;points=[];strokeColor=default;spacingLeft=15;spacingRight=15;spacingBottom=0;fontFamily=lexend light;fontSize=14;fontColor=default;fillColor=default;" vertex="1" connectable="0" parent="tY5H8uWJdQBPKQoihqLW-11">
          <mxGeometry x="-0.7233" relative="1" as="geometry">
            <mxPoint x="18" as="offset" />
          </mxGeometry>
        </mxCell>
        <mxCell id="tY5H8uWJdQBPKQoihqLW-13" style="edgeStyle=orthogonalEdgeStyle;rounded=0;orthogonalLoop=1;jettySize=auto;html=1;exitX=0.75;exitY=1;exitDx=0;exitDy=0;entryX=0.5;entryY=0;entryDx=0;entryDy=0;fontFamily=lexend light;fontSize=14;fontColor=default;" edge="1" parent="1" source="tY5H8uWJdQBPKQoihqLW-15" target="tY5H8uWJdQBPKQoihqLW-4">
          <mxGeometry relative="1" as="geometry" />
        </mxCell>
        <mxCell id="tY5H8uWJdQBPKQoihqLW-14" value="START" style="edgeLabel;html=1;align=center;verticalAlign=middle;resizable=0;points=[];strokeColor=default;spacingLeft=15;spacingRight=15;spacingBottom=0;fontFamily=lexend light;fontSize=14;fontColor=default;fillColor=default;" vertex="1" connectable="0" parent="tY5H8uWJdQBPKQoihqLW-13">
          <mxGeometry x="-0.2888" y="-1" relative="1" as="geometry">
            <mxPoint x="2" y="1" as="offset" />
          </mxGeometry>
        </mxCell>
        <mxCell id="tY5H8uWJdQBPKQoihqLW-15" value="FOR EACH&lt;div&gt;workout in the routine&lt;/div&gt;" style="whiteSpace=wrap;html=1;fontFamily=lexend light;fontSize=14;spacingBottom=0;spacingLeft=15;spacingRight=15;shape=trapezoid;perimeter=trapezoidPerimeter;fixedSize=1;" vertex="1" parent="1">
          <mxGeometry x="673" y="2346.25" width="226.75" height="52.5" as="geometry" />
        </mxCell>
        <mxCell id="tY5H8uWJdQBPKQoihqLW-16" style="edgeStyle=orthogonalEdgeStyle;rounded=0;orthogonalLoop=1;jettySize=auto;html=1;exitX=1;exitY=0.5;exitDx=0;exitDy=0;entryX=0;entryY=0.5;entryDx=0;entryDy=0;fontFamily=lexend light;fontSize=14;fontColor=default;" edge="1" parent="1" source="tY5H8uWJdQBPKQoihqLW-17" target="tY5H8uWJdQBPKQoihqLW-58">
          <mxGeometry relative="1" as="geometry" />
        </mxCell>
        <mxCell id="tY5H8uWJdQBPKQoihqLW-17" value="Fill workouts&amp;nbsp;&lt;div&gt;with sets&lt;/div&gt;" style="whiteSpace=wrap;html=1;shape=parallelogram;boundedLbl=1;backgroundOutline=1;size=15;fillColor=#0050ef;fontColor=#ffffff;strokeColor=#001DBC;fontFamily=lexend light;fontSize=14;fixedSize=1;perimeter=parallelogramPerimeter;" vertex="1" parent="1">
          <mxGeometry x="897.7199999999998" y="1347.5" width="130" height="65" as="geometry" />
        </mxCell>
        <mxCell id="tY5H8uWJdQBPKQoihqLW-18" style="edgeStyle=orthogonalEdgeStyle;rounded=0;orthogonalLoop=1;jettySize=auto;html=1;exitX=0.75;exitY=1;exitDx=0;exitDy=0;entryX=0.5;entryY=0;entryDx=0;entryDy=0;fontFamily=lexend light;fontSize=14;fontColor=default;" edge="1" parent="1" source="tY5H8uWJdQBPKQoihqLW-22" target="tY5H8uWJdQBPKQoihqLW-29">
          <mxGeometry relative="1" as="geometry" />
        </mxCell>
        <mxCell id="tY5H8uWJdQBPKQoihqLW-19" value="START" style="edgeLabel;html=1;align=center;verticalAlign=middle;resizable=0;points=[];strokeColor=default;spacingLeft=15;spacingRight=15;spacingBottom=0;fontFamily=lexend light;fontSize=14;fontColor=default;fillColor=default;" vertex="1" connectable="0" parent="tY5H8uWJdQBPKQoihqLW-18">
          <mxGeometry x="-0.1056" y="2" relative="1" as="geometry">
            <mxPoint as="offset" />
          </mxGeometry>
        </mxCell>
        <mxCell id="tY5H8uWJdQBPKQoihqLW-20" style="edgeStyle=orthogonalEdgeStyle;rounded=0;orthogonalLoop=1;jettySize=auto;html=1;exitX=0;exitY=0.5;exitDx=0;exitDy=0;entryX=0.25;entryY=1;entryDx=0;entryDy=0;fontFamily=lexend light;fontSize=14;fontColor=default;" edge="1" parent="1" source="tY5H8uWJdQBPKQoihqLW-22" target="tY5H8uWJdQBPKQoihqLW-58">
          <mxGeometry relative="1" as="geometry">
            <Array as="points">
              <mxPoint x="1127.7199999999998" y="1505.75" />
              <mxPoint x="1127.7199999999998" y="1434.75" />
              <mxPoint x="1127.7199999999998" y="1434.75" />
            </Array>
          </mxGeometry>
        </mxCell>
        <mxCell id="tY5H8uWJdQBPKQoihqLW-21" value="END" style="edgeLabel;html=1;align=center;verticalAlign=middle;resizable=0;points=[];strokeColor=default;spacingLeft=15;spacingRight=15;spacingBottom=0;fontFamily=lexend light;fontSize=14;fontColor=default;fillColor=default;" vertex="1" connectable="0" parent="tY5H8uWJdQBPKQoihqLW-20">
          <mxGeometry x="-0.4791" y="2" relative="1" as="geometry">
            <mxPoint x="9" y="-2" as="offset" />
          </mxGeometry>
        </mxCell>
        <mxCell id="tY5H8uWJdQBPKQoihqLW-22" value="FOR EACH&lt;div&gt;workout day&lt;/div&gt;" style="whiteSpace=wrap;html=1;fontFamily=lexend light;fontSize=14;spacingBottom=0;spacingLeft=15;spacingRight=15;shape=trapezoid;perimeter=trapezoidPerimeter;fixedSize=1;" vertex="1" parent="1">
          <mxGeometry x="1185.0899999999997" y="1474.6900000000005" width="204.13" height="62.5" as="geometry" />
        </mxCell>
        <mxCell id="tY5H8uWJdQBPKQoihqLW-23" style="edgeStyle=orthogonalEdgeStyle;rounded=0;orthogonalLoop=1;jettySize=auto;html=1;exitX=0.75;exitY=1;exitDx=0;exitDy=0;fontFamily=lexend light;fontSize=14;fontColor=default;" edge="1" parent="1" source="tY5H8uWJdQBPKQoihqLW-27" target="tY5H8uWJdQBPKQoihqLW-39">
          <mxGeometry relative="1" as="geometry" />
        </mxCell>
        <mxCell id="tY5H8uWJdQBPKQoihqLW-24" value="START" style="edgeLabel;html=1;align=center;verticalAlign=middle;resizable=0;points=[];strokeColor=default;spacingLeft=15;spacingRight=15;spacingBottom=0;fontFamily=lexend light;fontSize=14;fontColor=default;fillColor=default;" vertex="1" connectable="0" parent="tY5H8uWJdQBPKQoihqLW-23">
          <mxGeometry x="-0.0291" y="-3" relative="1" as="geometry">
            <mxPoint as="offset" />
          </mxGeometry>
        </mxCell>
        <mxCell id="tY5H8uWJdQBPKQoihqLW-25" style="edgeStyle=orthogonalEdgeStyle;rounded=0;orthogonalLoop=1;jettySize=auto;html=1;exitX=0;exitY=0.5;exitDx=0;exitDy=0;entryX=0.25;entryY=1;entryDx=0;entryDy=0;fontFamily=lexend light;fontSize=14;fontColor=default;" edge="1" parent="1" source="tY5H8uWJdQBPKQoihqLW-27" target="tY5H8uWJdQBPKQoihqLW-22">
          <mxGeometry relative="1" as="geometry">
            <Array as="points">
              <mxPoint x="1236.52" y="1727.4400000000005" />
              <mxPoint x="1236.52" y="1616.4400000000005" />
            </Array>
          </mxGeometry>
        </mxCell>
        <mxCell id="tY5H8uWJdQBPKQoihqLW-26" value="END" style="edgeLabel;html=1;align=center;verticalAlign=middle;resizable=0;points=[];strokeColor=default;spacingLeft=15;spacingRight=15;spacingBottom=0;fontFamily=lexend light;fontSize=14;fontColor=default;fillColor=default;" vertex="1" connectable="0" parent="tY5H8uWJdQBPKQoihqLW-25">
          <mxGeometry x="-0.686" y="-2" relative="1" as="geometry">
            <mxPoint x="6" y="2" as="offset" />
          </mxGeometry>
        </mxCell>
        <mxCell id="tY5H8uWJdQBPKQoihqLW-27" value="FOR EACH&lt;div&gt;exercise&lt;/div&gt;" style="whiteSpace=wrap;html=1;fontFamily=lexend light;fontSize=14;spacingBottom=0;spacingLeft=15;spacingRight=15;shape=trapezoid;perimeter=trapezoidPerimeter;fixedSize=1;" vertex="1" parent="1">
          <mxGeometry x="1287.52" y="1696.4400000000005" width="204.13" height="62.5" as="geometry" />
        </mxCell>
        <mxCell id="tY5H8uWJdQBPKQoihqLW-28" style="edgeStyle=orthogonalEdgeStyle;rounded=0;orthogonalLoop=1;jettySize=auto;html=1;exitX=0.5;exitY=1;exitDx=0;exitDy=0;entryX=0.25;entryY=0;entryDx=0;entryDy=0;fontFamily=lexend light;fontSize=14;fontColor=default;" edge="1" parent="1" source="tY5H8uWJdQBPKQoihqLW-29" target="tY5H8uWJdQBPKQoihqLW-27">
          <mxGeometry relative="1" as="geometry" />
        </mxCell>
        <mxCell id="tY5H8uWJdQBPKQoihqLW-29" value="Next day" style="whiteSpace=wrap;html=1;fontFamily=lexend light;fontSize=14;spacingBottom=0;spacingLeft=15;spacingRight=15;" vertex="1" parent="1">
          <mxGeometry x="1301.2199999999998" y="1593.4400000000005" width="75" height="60" as="geometry" />
        </mxCell>
        <mxCell id="tY5H8uWJdQBPKQoihqLW-30" style="edgeStyle=orthogonalEdgeStyle;rounded=0;orthogonalLoop=1;jettySize=auto;html=1;exitX=0.5;exitY=1;exitDx=0;exitDy=0;entryX=0.5;entryY=0;entryDx=0;entryDy=0;fontFamily=lexend light;fontSize=14;fontColor=default;" edge="1" parent="1" source="tY5H8uWJdQBPKQoihqLW-32" target="tY5H8uWJdQBPKQoihqLW-35">
          <mxGeometry relative="1" as="geometry" />
        </mxCell>
        <mxCell id="tY5H8uWJdQBPKQoihqLW-31" style="edgeStyle=orthogonalEdgeStyle;rounded=0;orthogonalLoop=1;jettySize=auto;html=1;exitX=0;exitY=0.5;exitDx=0;exitDy=0;entryX=0.25;entryY=1;entryDx=0;entryDy=0;fontFamily=lexend light;fontSize=14;fontColor=default;" edge="1" parent="1" source="tY5H8uWJdQBPKQoihqLW-32" target="tY5H8uWJdQBPKQoihqLW-27">
          <mxGeometry relative="1" as="geometry" />
        </mxCell>
        <mxCell id="tY5H8uWJdQBPKQoihqLW-32" value="Daily set limit exceeded?" style="shape=hexagon;perimeter=hexagonPerimeter2;whiteSpace=wrap;html=1;fixedSize=1;size=15;fillColor=#008a00;fontColor=#ffffff;strokeColor=#005700;fontFamily=lexend light;fontSize=14;spacingBottom=0;spacingLeft=15;spacingRight=15;" vertex="1" parent="1">
          <mxGeometry x="1378.5899999999997" y="2105.9799999999996" width="153.13" height="60" as="geometry" />
        </mxCell>
        <mxCell id="tY5H8uWJdQBPKQoihqLW-33" style="edgeStyle=orthogonalEdgeStyle;rounded=0;orthogonalLoop=1;jettySize=auto;html=1;exitX=0;exitY=0.5;exitDx=0;exitDy=0;entryX=0.25;entryY=1;entryDx=0;entryDy=0;fontFamily=lexend light;fontSize=14;fontColor=default;" edge="1" parent="1" source="tY5H8uWJdQBPKQoihqLW-35" target="tY5H8uWJdQBPKQoihqLW-27">
          <mxGeometry relative="1" as="geometry" />
        </mxCell>
        <mxCell id="tY5H8uWJdQBPKQoihqLW-34" style="edgeStyle=orthogonalEdgeStyle;rounded=0;orthogonalLoop=1;jettySize=auto;html=1;exitX=0.5;exitY=1;exitDx=0;exitDy=0;entryX=0.25;entryY=0;entryDx=0;entryDy=0;fontFamily=lexend light;fontSize=14;fontColor=default;" edge="1" parent="1" source="tY5H8uWJdQBPKQoihqLW-35" target="tY5H8uWJdQBPKQoihqLW-37">
          <mxGeometry relative="1" as="geometry" />
        </mxCell>
        <mxCell id="tY5H8uWJdQBPKQoihqLW-35" value="Weekly set limit exceeded?" style="shape=hexagon;perimeter=hexagonPerimeter2;whiteSpace=wrap;html=1;fixedSize=1;size=15;fillColor=#008a00;fontColor=#ffffff;strokeColor=#005700;fontFamily=lexend light;fontSize=14;spacingBottom=0;spacingLeft=15;spacingRight=15;" vertex="1" parent="1">
          <mxGeometry x="1378.5899999999997" y="2196.25" width="153.13" height="60" as="geometry" />
        </mxCell>
        <mxCell id="tY5H8uWJdQBPKQoihqLW-36" style="edgeStyle=orthogonalEdgeStyle;rounded=0;orthogonalLoop=1;jettySize=auto;html=1;exitX=0;exitY=0.5;exitDx=0;exitDy=0;entryX=0.25;entryY=1;entryDx=0;entryDy=0;fontFamily=lexend light;fontSize=14;fontColor=default;" edge="1" parent="1" source="tY5H8uWJdQBPKQoihqLW-37" target="tY5H8uWJdQBPKQoihqLW-27">
          <mxGeometry relative="1" as="geometry" />
        </mxCell>
        <mxCell id="tY5H8uWJdQBPKQoihqLW-37" value="Add a set" style="whiteSpace=wrap;html=1;fontFamily=lexend light;fontSize=14;spacingBottom=0;spacingLeft=15;spacingRight=15;" vertex="1" parent="1">
          <mxGeometry x="1482.7199999999998" y="2311.25" width="100" height="50" as="geometry" />
        </mxCell>
        <mxCell id="tY5H8uWJdQBPKQoihqLW-38" style="edgeStyle=orthogonalEdgeStyle;rounded=0;orthogonalLoop=1;jettySize=auto;html=1;exitX=1;exitY=0.5;exitDx=0;exitDy=0;entryX=0.5;entryY=0;entryDx=0;entryDy=0;fontFamily=lexend light;fontSize=14;fontColor=default;" edge="1" parent="1" source="tY5H8uWJdQBPKQoihqLW-39" target="tY5H8uWJdQBPKQoihqLW-64">
          <mxGeometry relative="1" as="geometry" />
        </mxCell>
        <mxCell id="tY5H8uWJdQBPKQoihqLW-39" value="Next exercise" style="whiteSpace=wrap;html=1;fontFamily=lexend light;fontSize=14;spacingBottom=0;spacingLeft=15;spacingRight=15;" vertex="1" parent="1">
          <mxGeometry x="1390.52" y="1815.4400000000005" width="100" height="60" as="geometry" />
        </mxCell>
        <mxCell id="tY5H8uWJdQBPKQoihqLW-40" value="Return" style="ellipse;whiteSpace=wrap;html=1;rounded=0;fillColor=#a20025;fontColor=#ffffff;strokeColor=#6F0000;fontFamily=lexend light;fontSize=14;spacingBottom=0;spacingLeft=15;spacingRight=15;" vertex="1" parent="1">
          <mxGeometry x="1349.5800000000004" y="1340" width="80" height="80" as="geometry" />
        </mxCell>
        <mxCell id="tY5H8uWJdQBPKQoihqLW-41" style="edgeStyle=orthogonalEdgeStyle;rounded=0;orthogonalLoop=1;jettySize=auto;html=1;exitX=0.5;exitY=1;exitDx=0;exitDy=0;entryX=0.5;entryY=0;entryDx=0;entryDy=0;" edge="1" parent="1" source="tY5H8uWJdQBPKQoihqLW-42" target="tY5H8uWJdQBPKQoihqLW-46">
          <mxGeometry relative="1" as="geometry" />
        </mxCell>
        <mxCell id="tY5H8uWJdQBPKQoihqLW-42" value="Get workout rules" style="shape=parallelogram;whiteSpace=wrap;html=1;fixedSize=1;strokeWidth=1;align=center;verticalAlign=middle;spacingLeft=15;spacingRight=15;spacingBottom=0;fontFamily=lexend light;fontSize=14;rounded=0;perimeter=parallelogramPerimeter;fillColor=#0050ef;fontColor=#ffffff;strokeColor=#001DBC;" vertex="1" parent="1">
          <mxGeometry x="395" y="1345" width="140" height="60" as="geometry" />
        </mxCell>
        <mxCell id="tY5H8uWJdQBPKQoihqLW-43" style="edgeStyle=orthogonalEdgeStyle;rounded=0;orthogonalLoop=1;jettySize=auto;html=1;exitX=0.5;exitY=1;exitDx=0;exitDy=0;entryX=0.5;entryY=0;entryDx=0;entryDy=0;" edge="1" parent="1" source="tY5H8uWJdQBPKQoihqLW-46" target="tY5H8uWJdQBPKQoihqLW-48">
          <mxGeometry relative="1" as="geometry" />
        </mxCell>
        <mxCell id="tY5H8uWJdQBPKQoihqLW-44" style="edgeStyle=orthogonalEdgeStyle;rounded=0;orthogonalLoop=1;jettySize=auto;html=1;exitX=0.5;exitY=1;exitDx=0;exitDy=0;entryX=0.5;entryY=0;entryDx=0;entryDy=0;" edge="1" parent="1" source="tY5H8uWJdQBPKQoihqLW-46" target="tY5H8uWJdQBPKQoihqLW-50">
          <mxGeometry relative="1" as="geometry">
            <Array as="points">
              <mxPoint x="465" y="1515" />
              <mxPoint x="660" y="1515" />
            </Array>
          </mxGeometry>
        </mxCell>
        <mxCell id="tY5H8uWJdQBPKQoihqLW-45" style="edgeStyle=orthogonalEdgeStyle;rounded=0;orthogonalLoop=1;jettySize=auto;html=1;exitX=0.5;exitY=1;exitDx=0;exitDy=0;entryX=0.5;entryY=0;entryDx=0;entryDy=0;" edge="1" parent="1" source="tY5H8uWJdQBPKQoihqLW-46" target="tY5H8uWJdQBPKQoihqLW-52">
          <mxGeometry relative="1" as="geometry">
            <Array as="points">
              <mxPoint x="465" y="1515" />
              <mxPoint x="260" y="1515" />
            </Array>
          </mxGeometry>
        </mxCell>
        <mxCell id="tY5H8uWJdQBPKQoihqLW-46" value="Fitness level?" style="shape=hexagon;perimeter=hexagonPerimeter2;whiteSpace=wrap;html=1;fixedSize=1;size=15;fillColor=#008a00;fontColor=#ffffff;strokeColor=#005700;fontFamily=lexend light;fontSize=14;spacingBottom=0;spacingLeft=15;spacingRight=15;" vertex="1" parent="1">
          <mxGeometry x="395" y="1435" width="140" height="60" as="geometry" />
        </mxCell>
        <mxCell id="tY5H8uWJdQBPKQoihqLW-47" style="edgeStyle=orthogonalEdgeStyle;rounded=0;orthogonalLoop=1;jettySize=auto;html=1;exitX=0.5;exitY=1;exitDx=0;exitDy=0;entryX=0.5;entryY=0;entryDx=0;entryDy=0;" edge="1" parent="1" source="tY5H8uWJdQBPKQoihqLW-48" target="tY5H8uWJdQBPKQoihqLW-53">
          <mxGeometry relative="1" as="geometry" />
        </mxCell>
        <mxCell id="tY5H8uWJdQBPKQoihqLW-48" value="Advanced beginner" style="shape=label;whiteSpace=wrap;html=1;fixedSize=1;strokeWidth=1;align=center;verticalAlign=middle;spacingLeft=15;spacingRight=15;spacingBottom=0;fontFamily=lexend light;fontSize=14;rounded=0;" vertex="1" parent="1">
          <mxGeometry x="385" y="1542.6900000000005" width="160" height="40" as="geometry" />
        </mxCell>
        <mxCell id="tY5H8uWJdQBPKQoihqLW-49" style="edgeStyle=orthogonalEdgeStyle;rounded=0;orthogonalLoop=1;jettySize=auto;html=1;exitX=0.5;exitY=1;exitDx=0;exitDy=0;entryX=0.5;entryY=0;entryDx=0;entryDy=0;" edge="1" parent="1" source="tY5H8uWJdQBPKQoihqLW-50" target="tY5H8uWJdQBPKQoihqLW-53">
          <mxGeometry relative="1" as="geometry" />
        </mxCell>
        <mxCell id="tY5H8uWJdQBPKQoihqLW-50" value="Experienced" style="shape=label;whiteSpace=wrap;html=1;fixedSize=1;strokeWidth=1;align=center;verticalAlign=middle;spacingLeft=15;spacingRight=15;spacingBottom=0;fontFamily=lexend light;fontSize=14;rounded=0;" vertex="1" parent="1">
          <mxGeometry x="580" y="1542.6900000000005" width="160" height="40" as="geometry" />
        </mxCell>
        <mxCell id="tY5H8uWJdQBPKQoihqLW-51" style="edgeStyle=orthogonalEdgeStyle;rounded=0;orthogonalLoop=1;jettySize=auto;html=1;exitX=0.5;exitY=1;exitDx=0;exitDy=0;entryX=0.5;entryY=0;entryDx=0;entryDy=0;" edge="1" parent="1" source="tY5H8uWJdQBPKQoihqLW-52" target="tY5H8uWJdQBPKQoihqLW-53">
          <mxGeometry relative="1" as="geometry" />
        </mxCell>
        <mxCell id="tY5H8uWJdQBPKQoihqLW-52" value="Complete beginner" style="shape=label;whiteSpace=wrap;html=1;fixedSize=1;strokeWidth=1;align=center;verticalAlign=middle;spacingLeft=15;spacingRight=15;spacingBottom=0;fontFamily=lexend light;fontSize=14;rounded=0;" vertex="1" parent="1">
          <mxGeometry x="180" y="1542.6900000000005" width="160" height="40" as="geometry" />
        </mxCell>
        <mxCell id="tY5H8uWJdQBPKQoihqLW-53" value="Return" style="ellipse;whiteSpace=wrap;html=1;rounded=0;fillColor=#a20025;fontColor=#ffffff;strokeColor=#6F0000;fontFamily=lexend light;fontSize=14;spacingBottom=0;spacingLeft=15;spacingRight=15;" vertex="1" parent="1">
          <mxGeometry x="425" y="1624.6900000000005" width="80" height="80" as="geometry" />
        </mxCell>
        <mxCell id="tY5H8uWJdQBPKQoihqLW-54" style="edgeStyle=orthogonalEdgeStyle;rounded=0;orthogonalLoop=1;jettySize=auto;html=1;exitX=0.75;exitY=1;exitDx=0;exitDy=0;entryX=0.25;entryY=0;entryDx=0;entryDy=0;fontFamily=lexend light;fontSize=14;fontColor=default;" edge="1" parent="1" source="tY5H8uWJdQBPKQoihqLW-58" target="tY5H8uWJdQBPKQoihqLW-22">
          <mxGeometry relative="1" as="geometry" />
        </mxCell>
        <mxCell id="tY5H8uWJdQBPKQoihqLW-55" value="TRUE" style="edgeLabel;html=1;align=center;verticalAlign=middle;resizable=0;points=[];strokeColor=default;spacingLeft=15;spacingRight=15;spacingBottom=0;fontFamily=lexend light;fontSize=14;fontColor=default;fillColor=default;" vertex="1" connectable="0" parent="tY5H8uWJdQBPKQoihqLW-54">
          <mxGeometry x="-0.2511" y="-1" relative="1" as="geometry">
            <mxPoint as="offset" />
          </mxGeometry>
        </mxCell>
        <mxCell id="tY5H8uWJdQBPKQoihqLW-56" style="edgeStyle=orthogonalEdgeStyle;rounded=0;orthogonalLoop=1;jettySize=auto;html=1;exitX=1;exitY=0.5;exitDx=0;exitDy=0;entryX=0;entryY=0.5;entryDx=0;entryDy=0;fontFamily=lexend light;fontSize=14;fontColor=default;" edge="1" parent="1" source="tY5H8uWJdQBPKQoihqLW-58" target="tY5H8uWJdQBPKQoihqLW-40">
          <mxGeometry relative="1" as="geometry" />
        </mxCell>
        <mxCell id="tY5H8uWJdQBPKQoihqLW-57" value="FALSE" style="edgeLabel;html=1;align=center;verticalAlign=middle;resizable=0;points=[];strokeColor=default;spacingLeft=15;spacingRight=15;spacingBottom=0;fontFamily=lexend light;fontSize=14;fontColor=default;fillColor=default;" vertex="1" connectable="0" parent="tY5H8uWJdQBPKQoihqLW-56">
          <mxGeometry x="-0.2876" relative="1" as="geometry">
            <mxPoint x="6" y="-1" as="offset" />
          </mxGeometry>
        </mxCell>
        <mxCell id="tY5H8uWJdQBPKQoihqLW-58" value="DO WHILE&lt;div&gt;sets are added&lt;/div&gt;" style="whiteSpace=wrap;html=1;fontFamily=lexend light;fontSize=14;spacingBottom=0;spacingLeft=15;spacingRight=15;shape=trapezoid;perimeter=trapezoidPerimeter;fixedSize=1;" vertex="1" parent="1">
          <mxGeometry x="1072.7199999999993" y="1345" width="218.25" height="70" as="geometry" />
        </mxCell>
        <mxCell id="tY5H8uWJdQBPKQoihqLW-59" style="edgeStyle=orthogonalEdgeStyle;rounded=0;orthogonalLoop=1;jettySize=auto;html=1;exitX=0.375;exitY=1;exitDx=0;exitDy=0;entryX=0.5;entryY=0;entryDx=0;entryDy=0;fontFamily=lexend light;fontSize=14;fontColor=default;" edge="1" parent="1" source="tY5H8uWJdQBPKQoihqLW-61" target="tY5H8uWJdQBPKQoihqLW-32">
          <mxGeometry relative="1" as="geometry" />
        </mxCell>
        <mxCell id="tY5H8uWJdQBPKQoihqLW-60" style="edgeStyle=orthogonalEdgeStyle;rounded=0;orthogonalLoop=1;jettySize=auto;html=1;exitX=0.625;exitY=1;exitDx=0;exitDy=0;entryX=0.75;entryY=0;entryDx=0;entryDy=0;fontFamily=lexend light;fontSize=14;fontColor=default;" edge="1" parent="1" source="tY5H8uWJdQBPKQoihqLW-61" target="tY5H8uWJdQBPKQoihqLW-37">
          <mxGeometry relative="1" as="geometry" />
        </mxCell>
        <mxCell id="tY5H8uWJdQBPKQoihqLW-61" value="Resistance exercise?" style="shape=hexagon;perimeter=hexagonPerimeter2;whiteSpace=wrap;html=1;fixedSize=1;size=15;fillColor=#008a00;fontColor=#ffffff;strokeColor=#005700;fontFamily=lexend light;fontSize=14;spacingBottom=0;spacingLeft=15;spacingRight=15;" vertex="1" parent="1">
          <mxGeometry x="1461.6499999999992" y="1996.25" width="153.13" height="60" as="geometry" />
        </mxCell>
        <mxCell id="tY5H8uWJdQBPKQoihqLW-62" style="edgeStyle=orthogonalEdgeStyle;rounded=0;orthogonalLoop=1;jettySize=auto;html=1;exitX=0.5;exitY=1;exitDx=0;exitDy=0;entryX=0.5;entryY=0;entryDx=0;entryDy=0;fontFamily=lexend light;fontSize=14;fontColor=default;" edge="1" parent="1" source="tY5H8uWJdQBPKQoihqLW-64" target="tY5H8uWJdQBPKQoihqLW-61">
          <mxGeometry relative="1" as="geometry" />
        </mxCell>
        <mxCell id="tY5H8uWJdQBPKQoihqLW-63" style="edgeStyle=orthogonalEdgeStyle;rounded=0;orthogonalLoop=1;jettySize=auto;html=1;exitX=0;exitY=0.5;exitDx=0;exitDy=0;entryX=0.25;entryY=1;entryDx=0;entryDy=0;fontFamily=lexend light;fontSize=14;fontColor=default;" edge="1" parent="1" source="tY5H8uWJdQBPKQoihqLW-64" target="tY5H8uWJdQBPKQoihqLW-27">
          <mxGeometry relative="1" as="geometry" />
        </mxCell>
        <mxCell id="tY5H8uWJdQBPKQoihqLW-64" value="Workout duration limit exceeded?" style="shape=hexagon;perimeter=hexagonPerimeter2;whiteSpace=wrap;html=1;fixedSize=1;size=15;fillColor=#008a00;fontColor=#ffffff;strokeColor=#005700;fontFamily=lexend light;fontSize=14;spacingBottom=0;spacingLeft=15;spacingRight=15;" vertex="1" parent="1">
          <mxGeometry x="1461.65" y="1911.25" width="153.13" height="60" as="geometry" />
        </mxCell>
        <mxCell id="tY5H8uWJdQBPKQoihqLW-65" value="struct&lt;div&gt;exercise&amp;nbsp;&lt;/div&gt;" style="whiteSpace=wrap;html=1;fontFamily=lexend light;fontSize=14;spacingBottom=0;spacingLeft=15;spacingRight=15;" vertex="1" parent="1">
          <mxGeometry x="949" y="778.77" width="124.5" height="40" as="geometry" />
        </mxCell>
        <mxCell id="tY5H8uWJdQBPKQoihqLW-66" value="struct&lt;div&gt;&amp;nbsp;workout 1&lt;/div&gt;" style="whiteSpace=wrap;html=1;fontFamily=lexend light;fontSize=14;spacingBottom=0;spacingLeft=15;spacingRight=15;" vertex="1" parent="1">
          <mxGeometry x="1198.5" y="690" width="115.5" height="40" as="geometry" />
        </mxCell>
        <mxCell id="tY5H8uWJdQBPKQoihqLW-67" value="global variable routine&lt;div&gt;(an array of muscle groups)&lt;/div&gt;" style="whiteSpace=wrap;html=1;fontFamily=lexend light;fontSize=14;spacingBottom=0;spacingLeft=15;spacingRight=15;" vertex="1" parent="1">
          <mxGeometry x="1453.21" y="778.77" width="176.04" height="103.77" as="geometry" />
        </mxCell>
        <mxCell id="tY5H8uWJdQBPKQoihqLW-68" value="Muscle group 1" style="whiteSpace=wrap;html=1;fontFamily=lexend light;fontSize=14;spacingBottom=0;spacingLeft=15;spacingRight=15;" vertex="1" parent="1">
          <mxGeometry x="1214" y="760" width="84.5" height="40" as="geometry" />
        </mxCell>
        <mxCell id="tY5H8uWJdQBPKQoihqLW-69" value="Muscle group 3" style="whiteSpace=wrap;html=1;fontFamily=lexend light;fontSize=14;spacingBottom=0;spacingLeft=15;spacingRight=15;" vertex="1" parent="1">
          <mxGeometry x="1214" y="890" width="84.5" height="40" as="geometry" />
        </mxCell>
        <mxCell id="tY5H8uWJdQBPKQoihqLW-70" value="Muscle group 2" style="whiteSpace=wrap;html=1;fontFamily=lexend light;fontSize=14;spacingBottom=0;spacingLeft=15;spacingRight=15;" vertex="1" parent="1">
          <mxGeometry x="1214" y="830" width="84.5" height="40" as="geometry" />
        </mxCell>
        <mxCell id="tY5H8uWJdQBPKQoihqLW-71" value="struct&lt;div&gt;workout 2&lt;/div&gt;" style="whiteSpace=wrap;html=1;fontFamily=lexend light;fontSize=14;spacingBottom=0;spacingLeft=15;spacingRight=15;" vertex="1" parent="1">
          <mxGeometry x="1198.5" y="983.77" width="115.5" height="40" as="geometry" />
        </mxCell>
        <mxCell id="tY5H8uWJdQBPKQoihqLW-72" value="Muscle group 2" style="whiteSpace=wrap;html=1;fontFamily=lexend light;fontSize=14;spacingBottom=0;spacingLeft=15;spacingRight=15;" vertex="1" parent="1">
          <mxGeometry x="1214" y="1053.77" width="84.5" height="40" as="geometry" />
        </mxCell>
        <mxCell id="tY5H8uWJdQBPKQoihqLW-73" value="Muscle group 4" style="whiteSpace=wrap;html=1;fontFamily=lexend light;fontSize=14;spacingBottom=0;spacingLeft=15;spacingRight=15;" vertex="1" parent="1">
          <mxGeometry x="1214" y="1123.77" width="84.5" height="40" as="geometry" />
        </mxCell>
        <mxCell id="tY5H8uWJdQBPKQoihqLW-74" value="Muscle group 1" style="whiteSpace=wrap;html=1;fontFamily=lexend light;fontSize=14;spacingBottom=0;spacingLeft=15;spacingRight=15;" vertex="1" parent="1">
          <mxGeometry x="1498.98" y="918.77" width="84.5" height="40" as="geometry" />
        </mxCell>
        <mxCell id="tY5H8uWJdQBPKQoihqLW-75" value="Muscle group 3" style="whiteSpace=wrap;html=1;fontFamily=lexend light;fontSize=14;spacingBottom=0;spacingLeft=15;spacingRight=15;" vertex="1" parent="1">
          <mxGeometry x="1498.98" y="1048.77" width="84.5" height="40" as="geometry" />
        </mxCell>
        <mxCell id="tY5H8uWJdQBPKQoihqLW-76" value="Muscle group 2" style="whiteSpace=wrap;html=1;fontFamily=lexend light;fontSize=14;spacingBottom=0;spacingLeft=15;spacingRight=15;" vertex="1" parent="1">
          <mxGeometry x="1498.98" y="988.77" width="84.5" height="40" as="geometry" />
        </mxCell>
        <mxCell id="tY5H8uWJdQBPKQoihqLW-77" value="Muscle group 4" style="whiteSpace=wrap;html=1;fontFamily=lexend light;fontSize=14;spacingBottom=0;spacingLeft=15;spacingRight=15;" vertex="1" parent="1">
          <mxGeometry x="1498.98" y="1113.77" width="84.5" height="40" as="geometry" />
        </mxCell>
        <mxCell id="tY5H8uWJdQBPKQoihqLW-78" value="Muscle group 1" style="whiteSpace=wrap;html=1;fontFamily=lexend light;fontSize=14;spacingBottom=0;spacingLeft=15;spacingRight=15;" vertex="1" parent="1">
          <mxGeometry x="969" y="848.77" width="84.5" height="40" as="geometry" />
        </mxCell>
        <mxCell id="tY5H8uWJdQBPKQoihqLW-79" value="Muscle group 2" style="whiteSpace=wrap;html=1;fontFamily=lexend light;fontSize=14;spacingBottom=0;spacingLeft=15;spacingRight=15;" vertex="1" parent="1">
          <mxGeometry x="969" y="918.77" width="84.5" height="40" as="geometry" />
        </mxCell>
        <mxCell id="tY5H8uWJdQBPKQoihqLW-80" value="" style="endArrow=classic;html=1;rounded=0;exitX=1;exitY=0.5;exitDx=0;exitDy=0;entryX=0;entryY=0.75;entryDx=0;entryDy=0;" edge="1" parent="1" source="tY5H8uWJdQBPKQoihqLW-72" target="tY5H8uWJdQBPKQoihqLW-76">
          <mxGeometry width="50" height="50" relative="1" as="geometry">
            <mxPoint x="1358.5" y="1063.77" as="sourcePoint" />
            <mxPoint x="1408.5" y="1013.77" as="targetPoint" />
          </mxGeometry>
        </mxCell>
        <mxCell id="tY5H8uWJdQBPKQoihqLW-81" value="" style="endArrow=classic;html=1;rounded=0;exitX=1;exitY=0.5;exitDx=0;exitDy=0;entryX=0;entryY=0.5;entryDx=0;entryDy=0;" edge="1" parent="1" source="tY5H8uWJdQBPKQoihqLW-69" target="tY5H8uWJdQBPKQoihqLW-75">
          <mxGeometry width="50" height="50" relative="1" as="geometry">
            <mxPoint x="1358.5" y="1063.77" as="sourcePoint" />
            <mxPoint x="1408.5" y="1013.77" as="targetPoint" />
          </mxGeometry>
        </mxCell>
        <mxCell id="tY5H8uWJdQBPKQoihqLW-82" value="" style="endArrow=classic;html=1;rounded=0;exitX=1;exitY=0.5;exitDx=0;exitDy=0;entryX=0;entryY=0.25;entryDx=0;entryDy=0;" edge="1" parent="1" source="tY5H8uWJdQBPKQoihqLW-70" target="tY5H8uWJdQBPKQoihqLW-76">
          <mxGeometry width="50" height="50" relative="1" as="geometry">
            <mxPoint x="1358.5" y="1063.77" as="sourcePoint" />
            <mxPoint x="1408.5" y="1013.77" as="targetPoint" />
          </mxGeometry>
        </mxCell>
        <mxCell id="tY5H8uWJdQBPKQoihqLW-83" value="" style="endArrow=classic;html=1;rounded=0;exitX=1;exitY=0.5;exitDx=0;exitDy=0;entryX=0;entryY=0.5;entryDx=0;entryDy=0;" edge="1" parent="1" source="tY5H8uWJdQBPKQoihqLW-73" target="tY5H8uWJdQBPKQoihqLW-77">
          <mxGeometry width="50" height="50" relative="1" as="geometry">
            <mxPoint x="1308.5" y="859.77" as="sourcePoint" />
            <mxPoint x="1508.5" y="1018.77" as="targetPoint" />
          </mxGeometry>
        </mxCell>
        <mxCell id="tY5H8uWJdQBPKQoihqLW-84" value="" style="endArrow=classic;html=1;rounded=0;exitX=1;exitY=0.5;exitDx=0;exitDy=0;entryX=0;entryY=0.5;entryDx=0;entryDy=0;" edge="1" parent="1" source="tY5H8uWJdQBPKQoihqLW-68" target="tY5H8uWJdQBPKQoihqLW-74">
          <mxGeometry width="50" height="50" relative="1" as="geometry">
            <mxPoint x="1308.5" y="789.77" as="sourcePoint" />
            <mxPoint x="1508.5" y="948.77" as="targetPoint" />
          </mxGeometry>
        </mxCell>
        <mxCell id="tY5H8uWJdQBPKQoihqLW-85" value="" style="endArrow=classic;html=1;rounded=0;exitX=1;exitY=0.5;exitDx=0;exitDy=0;entryX=0;entryY=0.5;entryDx=0;entryDy=0;" edge="1" parent="1" source="tY5H8uWJdQBPKQoihqLW-78" target="tY5H8uWJdQBPKQoihqLW-68">
          <mxGeometry width="50" height="50" relative="1" as="geometry">
            <mxPoint x="908.5" y="1048.77" as="sourcePoint" />
            <mxPoint x="1108.5" y="1207.77" as="targetPoint" />
          </mxGeometry>
        </mxCell>
        <mxCell id="tY5H8uWJdQBPKQoihqLW-86" value="" style="endArrow=classic;html=1;rounded=0;exitX=1;exitY=0.5;exitDx=0;exitDy=0;entryX=0;entryY=0.5;entryDx=0;entryDy=0;" edge="1" parent="1" source="tY5H8uWJdQBPKQoihqLW-79" target="tY5H8uWJdQBPKQoihqLW-70">
          <mxGeometry width="50" height="50" relative="1" as="geometry">
            <mxPoint x="1063.5" y="878.77" as="sourcePoint" />
            <mxPoint x="1224.5" y="789.77" as="targetPoint" />
          </mxGeometry>
        </mxCell>
        <mxCell id="tY5H8uWJdQBPKQoihqLW-87" value="Sketch of how muscle groups are connected.&lt;div&gt;Muscle groups in struct exercise have pointers to muscle groups in struct workout.&lt;/div&gt;&lt;div&gt;Muscle groups in struct workout have pointers to muscle groups in the global routine variable.&lt;/div&gt;" style="text;html=1;align=center;verticalAlign=middle;resizable=0;points=[];autosize=1;strokeColor=none;fillColor=none;fontFamily=lexend light;fontSize=14;fontColor=default;" vertex="1" parent="1">
          <mxGeometry x="936.25" y="605" width="640" height="60" as="geometry" />
        </mxCell>
        <mxCell id="tY5H8uWJdQBPKQoihqLW-88" value="&lt;font style=&quot;font-size: 100px;&quot;&gt;JESP&#39;S CORNER&lt;/font&gt;" style="text;html=1;align=center;verticalAlign=middle;resizable=0;points=[];autosize=1;strokeColor=none;fillColor=none;fontFamily=lexend light;fontSize=14;fontColor=#ffffff;" vertex="1" parent="1">
          <mxGeometry x="989.5900000000001" y="140" width="800" height="130" as="geometry" />
        </mxCell>
        <mxCell id="tY5H8uWJdQBPKQoihqLW-89" value="Add resistance exercises" style="whiteSpace=wrap;html=1;shape=parallelogram;boundedLbl=1;backgroundOutline=1;size=15;fillColor=#0050ef;fontColor=#ffffff;strokeColor=#001DBC;fontFamily=lexend light;fontSize=14;fixedSize=1;perimeter=parallelogramPerimeter;" vertex="1" parent="1">
          <mxGeometry x="3028.06" y="1036.25" width="150" height="80" as="geometry" />
        </mxCell>
        <mxCell id="tY5H8uWJdQBPKQoihqLW-90" style="edgeStyle=orthogonalEdgeStyle;rounded=0;orthogonalLoop=1;jettySize=auto;html=1;exitX=0.75;exitY=1;exitDx=0;exitDy=0;entryX=0.5;entryY=0;entryDx=0;entryDy=0;fontFamily=lexend light;fontSize=14;fontColor=default;" edge="1" parent="1" source="tY5H8uWJdQBPKQoihqLW-93" target="tY5H8uWJdQBPKQoihqLW-95">
          <mxGeometry relative="1" as="geometry" />
        </mxCell>
        <mxCell id="tY5H8uWJdQBPKQoihqLW-91" value="START" style="edgeLabel;html=1;align=center;verticalAlign=middle;resizable=0;points=[];strokeColor=default;spacingLeft=15;spacingRight=15;spacingBottom=0;fontFamily=lexend light;fontSize=14;fontColor=default;fillColor=default;" vertex="1" connectable="0" parent="tY5H8uWJdQBPKQoihqLW-90">
          <mxGeometry x="-0.1303" y="3" relative="1" as="geometry">
            <mxPoint as="offset" />
          </mxGeometry>
        </mxCell>
        <mxCell id="tY5H8uWJdQBPKQoihqLW-92" style="edgeStyle=orthogonalEdgeStyle;rounded=0;orthogonalLoop=1;jettySize=auto;html=1;exitX=0;exitY=0.5;exitDx=0;exitDy=0;entryX=0.25;entryY=1;entryDx=0;entryDy=0;fontFamily=lexend light;fontSize=14;fontColor=default;" edge="1" parent="1" source="tY5H8uWJdQBPKQoihqLW-93" target="tY5H8uWJdQBPKQoihqLW-129">
          <mxGeometry relative="1" as="geometry">
            <Array as="points">
              <mxPoint x="3381.68" y="1273.25" />
              <mxPoint x="3295.68" y="1273.25" />
            </Array>
          </mxGeometry>
        </mxCell>
        <mxCell id="tY5H8uWJdQBPKQoihqLW-93" value="&lt;div&gt;FOR EACH&lt;/div&gt;&lt;div&gt;resistance training day&lt;/div&gt;" style="whiteSpace=wrap;html=1;fontFamily=lexend light;fontSize=14;spacingBottom=0;spacingLeft=15;spacingRight=15;shape=trapezoid;perimeter=trapezoidPerimeter;fixedSize=1;" vertex="1" parent="1">
          <mxGeometry x="3371.5499999999997" y="1237.06" width="233" height="70" as="geometry" />
        </mxCell>
        <mxCell id="tY5H8uWJdQBPKQoihqLW-94" style="edgeStyle=orthogonalEdgeStyle;rounded=0;orthogonalLoop=1;jettySize=auto;html=1;exitX=0.5;exitY=1;exitDx=0;exitDy=0;entryX=0.5;entryY=0;entryDx=0;entryDy=0;fontFamily=lexend light;fontSize=14;fontColor=#ffffff;" edge="1" parent="1" source="tY5H8uWJdQBPKQoihqLW-95" target="tY5H8uWJdQBPKQoihqLW-96">
          <mxGeometry relative="1" as="geometry" />
        </mxCell>
        <mxCell id="tY5H8uWJdQBPKQoihqLW-95" value="Next day" style="whiteSpace=wrap;html=1;fontFamily=lexend light;fontSize=14;spacingBottom=0;spacingLeft=15;spacingRight=15;" vertex="1" parent="1">
          <mxGeometry x="3496.69" y="1365.88" width="100" height="46.56" as="geometry" />
        </mxCell>
        <mxCell id="tY5H8uWJdQBPKQoihqLW-96" value="Find a&amp;nbsp;&lt;b&gt;resistance &lt;/b&gt;exercise candidates" style="whiteSpace=wrap;html=1;fontFamily=lexend light;fontSize=14;spacingBottom=0;spacingLeft=15;spacingRight=15;fillColor=#d80073;fontColor=#ffffff;strokeColor=#A50040;shape=parallelogram;fixedSize=1;size=18.050000000000182;perimeter=parallelogramPerimeter;" vertex="1" parent="1">
          <mxGeometry x="3459.899999999999" y="1444.5600000000013" width="173.97" height="62.5" as="geometry" />
        </mxCell>
        <mxCell id="tY5H8uWJdQBPKQoihqLW-97" style="edgeStyle=orthogonalEdgeStyle;rounded=0;orthogonalLoop=1;jettySize=auto;html=1;exitX=0;exitY=0.5;exitDx=0;exitDy=0;entryX=0.25;entryY=1;entryDx=0;entryDy=0;fontFamily=lexend light;fontSize=14;fontColor=#ffffff;" edge="1" parent="1" source="tY5H8uWJdQBPKQoihqLW-98" target="tY5H8uWJdQBPKQoihqLW-93">
          <mxGeometry relative="1" as="geometry" />
        </mxCell>
        <mxCell id="tY5H8uWJdQBPKQoihqLW-98" value="Add exercise and specific warm-up" style="whiteSpace=wrap;html=1;fontFamily=lexend light;fontSize=14;spacingBottom=0;spacingLeft=15;spacingRight=15;" vertex="1" parent="1">
          <mxGeometry x="3476.89" y="1631.5599999999995" width="137.86" height="89.69" as="geometry" />
        </mxCell>
        <mxCell id="tY5H8uWJdQBPKQoihqLW-99" style="edgeStyle=orthogonalEdgeStyle;rounded=0;orthogonalLoop=1;jettySize=auto;html=1;exitX=0.75;exitY=1;exitDx=0;exitDy=0;entryX=0.5;entryY=0;entryDx=0;entryDy=0;fontFamily=lexend light;fontSize=14;fontColor=default;" edge="1" parent="1" source="tY5H8uWJdQBPKQoihqLW-102" target="tY5H8uWJdQBPKQoihqLW-110">
          <mxGeometry relative="1" as="geometry">
            <Array as="points">
              <mxPoint x="2475.68" y="1199.44" />
              <mxPoint x="2475.68" y="1230.44" />
            </Array>
          </mxGeometry>
        </mxCell>
        <mxCell id="tY5H8uWJdQBPKQoihqLW-100" value="START" style="edgeLabel;html=1;align=center;verticalAlign=middle;resizable=0;points=[];strokeColor=default;spacingLeft=15;spacingRight=15;spacingBottom=0;fontFamily=lexend light;fontSize=14;fontColor=default;fillColor=default;" vertex="1" connectable="0" parent="tY5H8uWJdQBPKQoihqLW-99">
          <mxGeometry x="-0.3372" relative="1" as="geometry">
            <mxPoint y="19" as="offset" />
          </mxGeometry>
        </mxCell>
        <mxCell id="tY5H8uWJdQBPKQoihqLW-101" style="edgeStyle=orthogonalEdgeStyle;rounded=0;orthogonalLoop=1;jettySize=auto;html=1;exitX=1;exitY=0.5;exitDx=0;exitDy=0;entryX=0;entryY=0.5;entryDx=0;entryDy=0;fontFamily=lexend light;fontSize=14;fontColor=default;" edge="1" parent="1" source="tY5H8uWJdQBPKQoihqLW-145" target="tY5H8uWJdQBPKQoihqLW-111">
          <mxGeometry relative="1" as="geometry" />
        </mxCell>
        <mxCell id="tY5H8uWJdQBPKQoihqLW-102" value="FOR EACH&lt;div&gt;valid&amp;nbsp;resistance&lt;b&gt; &lt;/b&gt;exercise&lt;/div&gt;&lt;div&gt;&lt;b&gt;(start at a random index)&lt;/b&gt;&lt;br&gt;&lt;/div&gt;" style="whiteSpace=wrap;html=1;fontFamily=lexend light;fontSize=14;spacingBottom=0;spacingLeft=15;spacingRight=15;shape=trapezoid;perimeter=trapezoidPerimeter;fixedSize=1;" vertex="1" parent="1">
          <mxGeometry x="2293.68" y="1136.69" width="229.13" height="62.5" as="geometry" />
        </mxCell>
        <mxCell id="tY5H8uWJdQBPKQoihqLW-103" style="edgeStyle=orthogonalEdgeStyle;rounded=0;orthogonalLoop=1;jettySize=auto;html=1;exitX=0;exitY=0.5;exitDx=0;exitDy=0;fontFamily=lexend light;fontSize=14;fontColor=default;entryX=0.25;entryY=1;entryDx=0;entryDy=0;" edge="1" parent="1" source="tY5H8uWJdQBPKQoihqLW-105" target="tY5H8uWJdQBPKQoihqLW-102">
          <mxGeometry relative="1" as="geometry">
            <mxPoint x="2388.68" y="1272.44" as="targetPoint" />
          </mxGeometry>
        </mxCell>
        <mxCell id="tY5H8uWJdQBPKQoihqLW-104" style="edgeStyle=orthogonalEdgeStyle;rounded=0;orthogonalLoop=1;jettySize=auto;html=1;exitX=0.5;exitY=1;exitDx=0;exitDy=0;entryX=0.5;entryY=0;entryDx=0;entryDy=0;" edge="1" parent="1" source="tY5H8uWJdQBPKQoihqLW-105" target="tY5H8uWJdQBPKQoihqLW-116">
          <mxGeometry relative="1" as="geometry" />
        </mxCell>
        <mxCell id="tY5H8uWJdQBPKQoihqLW-105" value="Workout duration limit exceeded?" style="shape=hexagon;perimeter=hexagonPerimeter2;whiteSpace=wrap;html=1;fixedSize=1;size=15;fillColor=#008a00;fontColor=#ffffff;strokeColor=#005700;fontFamily=lexend light;fontSize=14;spacingBottom=0;spacingLeft=15;spacingRight=15;" vertex="1" parent="1">
          <mxGeometry x="2398.68" y="1442.4400000000005" width="153.13" height="60" as="geometry" />
        </mxCell>
        <mxCell id="tY5H8uWJdQBPKQoihqLW-106" style="edgeStyle=orthogonalEdgeStyle;rounded=0;orthogonalLoop=1;jettySize=auto;html=1;exitX=0.5;exitY=1;exitDx=0;exitDy=0;entryX=0.5;entryY=0;entryDx=0;entryDy=0;fontFamily=lexend light;fontSize=14;fontColor=default;" edge="1" parent="1" source="tY5H8uWJdQBPKQoihqLW-108" target="tY5H8uWJdQBPKQoihqLW-105">
          <mxGeometry relative="1" as="geometry" />
        </mxCell>
        <mxCell id="tY5H8uWJdQBPKQoihqLW-107" style="edgeStyle=orthogonalEdgeStyle;rounded=0;orthogonalLoop=1;jettySize=auto;html=1;exitX=0;exitY=0.5;exitDx=0;exitDy=0;entryX=0.25;entryY=1;entryDx=0;entryDy=0;fontFamily=lexend light;fontSize=14;fontColor=default;" edge="1" parent="1" source="tY5H8uWJdQBPKQoihqLW-108" target="tY5H8uWJdQBPKQoihqLW-102">
          <mxGeometry relative="1" as="geometry" />
        </mxCell>
        <mxCell id="tY5H8uWJdQBPKQoihqLW-108" value="Includes desired muscle group?" style="shape=hexagon;perimeter=hexagonPerimeter2;whiteSpace=wrap;html=1;fixedSize=1;size=15;fillColor=#008a00;fontColor=#ffffff;strokeColor=#005700;fontFamily=lexend light;fontSize=14;spacingBottom=0;spacingLeft=15;spacingRight=15;" vertex="1" parent="1">
          <mxGeometry x="2398.68" y="1352.44" width="153.13" height="60" as="geometry" />
        </mxCell>
        <mxCell id="tY5H8uWJdQBPKQoihqLW-109" style="edgeStyle=orthogonalEdgeStyle;rounded=0;orthogonalLoop=1;jettySize=auto;html=1;exitX=0.5;exitY=1;exitDx=0;exitDy=0;entryX=0.5;entryY=0;entryDx=0;entryDy=0;fontFamily=lexend light;fontSize=14;fontColor=default;" edge="1" parent="1" source="tY5H8uWJdQBPKQoihqLW-110" target="tY5H8uWJdQBPKQoihqLW-108">
          <mxGeometry relative="1" as="geometry" />
        </mxCell>
        <mxCell id="tY5H8uWJdQBPKQoihqLW-110" value="Next exercise" style="whiteSpace=wrap;html=1;fontFamily=lexend light;fontSize=14;spacingBottom=0;spacingLeft=15;spacingRight=15;" vertex="1" parent="1">
          <mxGeometry x="2433.4199999999996" y="1262.44" width="83.66" height="60" as="geometry" />
        </mxCell>
        <mxCell id="tY5H8uWJdQBPKQoihqLW-111" value="Return&lt;div&gt;NULL&lt;/div&gt;" style="ellipse;whiteSpace=wrap;html=1;rounded=0;fillColor=#a20025;fontColor=#ffffff;strokeColor=#6F0000;fontFamily=lexend light;fontSize=14;spacingBottom=0;spacingLeft=15;spacingRight=15;" vertex="1" parent="1">
          <mxGeometry x="2783.68" y="1129.19" width="80" height="80" as="geometry" />
        </mxCell>
        <mxCell id="tY5H8uWJdQBPKQoihqLW-112" style="edgeStyle=orthogonalEdgeStyle;rounded=0;orthogonalLoop=1;jettySize=auto;html=1;exitX=1;exitY=0.5;exitDx=0;exitDy=0;entryX=0;entryY=0.5;entryDx=0;entryDy=0;fontFamily=lexend light;fontSize=14;fontColor=default;" edge="1" parent="1" source="tY5H8uWJdQBPKQoihqLW-113" target="tY5H8uWJdQBPKQoihqLW-102">
          <mxGeometry relative="1" as="geometry" />
        </mxCell>
        <mxCell id="tY5H8uWJdQBPKQoihqLW-113" value="Find &lt;b&gt;resistance &lt;/b&gt;exercise candidate" style="whiteSpace=wrap;html=1;fontFamily=lexend light;fontSize=14;spacingBottom=0;spacingLeft=15;spacingRight=15;fillColor=#0050ef;fontColor=#ffffff;strokeColor=#001DBC;shape=parallelogram;fixedSize=1;size=18.050000000000182;perimeter=parallelogramPerimeter;" vertex="1" parent="1">
          <mxGeometry x="2083.68" y="1136.69" width="170" height="62.5" as="geometry" />
        </mxCell>
        <mxCell id="tY5H8uWJdQBPKQoihqLW-114" style="edgeStyle=orthogonalEdgeStyle;rounded=0;orthogonalLoop=1;jettySize=auto;html=1;exitX=0;exitY=0.5;exitDx=0;exitDy=0;entryX=0.25;entryY=1;entryDx=0;entryDy=0;" edge="1" parent="1" source="tY5H8uWJdQBPKQoihqLW-116" target="tY5H8uWJdQBPKQoihqLW-102">
          <mxGeometry relative="1" as="geometry" />
        </mxCell>
        <mxCell id="tY5H8uWJdQBPKQoihqLW-115" style="edgeStyle=orthogonalEdgeStyle;rounded=0;orthogonalLoop=1;jettySize=auto;html=1;exitX=0.5;exitY=1;exitDx=0;exitDy=0;entryX=0.5;entryY=0;entryDx=0;entryDy=0;" edge="1" parent="1" source="tY5H8uWJdQBPKQoihqLW-116" target="tY5H8uWJdQBPKQoihqLW-124">
          <mxGeometry relative="1" as="geometry" />
        </mxCell>
        <mxCell id="tY5H8uWJdQBPKQoihqLW-116" value="Max weekly sets exceeded?" style="shape=hexagon;perimeter=hexagonPerimeter2;whiteSpace=wrap;html=1;fixedSize=1;size=15;fillColor=#008a00;fontColor=#ffffff;strokeColor=#005700;fontFamily=lexend light;fontSize=14;spacingBottom=0;spacingLeft=15;spacingRight=15;" vertex="1" parent="1">
          <mxGeometry x="2398.68" y="1533.42" width="153.13" height="60" as="geometry" />
        </mxCell>
        <mxCell id="tY5H8uWJdQBPKQoihqLW-117" value="" style="edgeStyle=orthogonalEdgeStyle;rounded=0;orthogonalLoop=1;jettySize=auto;html=1;exitX=0.5;exitY=1;exitDx=0;exitDy=0;entryX=0.5;entryY=0;entryDx=0;entryDy=0;fontFamily=lexend light;fontSize=14;fontColor=default;" edge="1" parent="1" source="tY5H8uWJdQBPKQoihqLW-96" target="tY5H8uWJdQBPKQoihqLW-120">
          <mxGeometry relative="1" as="geometry">
            <mxPoint x="3547.18" y="1629.5599999999995" as="sourcePoint" />
            <mxPoint x="3546.18" y="1766.5599999999995" as="targetPoint" />
          </mxGeometry>
        </mxCell>
        <mxCell id="tY5H8uWJdQBPKQoihqLW-118" style="edgeStyle=orthogonalEdgeStyle;rounded=0;orthogonalLoop=1;jettySize=auto;html=1;exitX=0;exitY=0.5;exitDx=0;exitDy=0;entryX=0.25;entryY=1;entryDx=0;entryDy=0;" edge="1" parent="1" source="tY5H8uWJdQBPKQoihqLW-120" target="tY5H8uWJdQBPKQoihqLW-93">
          <mxGeometry relative="1" as="geometry" />
        </mxCell>
        <mxCell id="tY5H8uWJdQBPKQoihqLW-119" style="edgeStyle=orthogonalEdgeStyle;rounded=0;orthogonalLoop=1;jettySize=auto;html=1;exitX=0.5;exitY=1;exitDx=0;exitDy=0;entryX=0.5;entryY=0;entryDx=0;entryDy=0;fontFamily=lexend light;fontSize=14;fontColor=#ffffff;" edge="1" parent="1" source="tY5H8uWJdQBPKQoihqLW-120" target="tY5H8uWJdQBPKQoihqLW-98">
          <mxGeometry relative="1" as="geometry" />
        </mxCell>
        <mxCell id="tY5H8uWJdQBPKQoihqLW-120" value="Found a candidate?" style="shape=hexagon;perimeter=hexagonPerimeter2;whiteSpace=wrap;html=1;fixedSize=1;size=15;fillColor=#008a00;fontColor=#ffffff;strokeColor=#005700;fontFamily=lexend light;fontSize=14;spacingBottom=0;spacingLeft=15;spacingRight=15;" vertex="1" parent="1">
          <mxGeometry x="3476.89" y="1536.960000000001" width="140" height="60" as="geometry" />
        </mxCell>
        <mxCell id="tY5H8uWJdQBPKQoihqLW-121" style="edgeStyle=orthogonalEdgeStyle;rounded=0;orthogonalLoop=1;jettySize=auto;html=1;exitX=0;exitY=0.5;exitDx=0;exitDy=0;entryX=0.25;entryY=1;entryDx=0;entryDy=0;" edge="1" parent="1" source="tY5H8uWJdQBPKQoihqLW-124" target="tY5H8uWJdQBPKQoihqLW-102">
          <mxGeometry relative="1" as="geometry" />
        </mxCell>
        <mxCell id="tY5H8uWJdQBPKQoihqLW-122" style="edgeStyle=orthogonalEdgeStyle;rounded=0;orthogonalLoop=1;jettySize=auto;html=1;exitX=0.5;exitY=1;exitDx=0;exitDy=0;entryX=0.5;entryY=0;entryDx=0;entryDy=0;fontFamily=lexend light;fontSize=14;fontColor=default;" edge="1" parent="1" source="tY5H8uWJdQBPKQoihqLW-137" target="tY5H8uWJdQBPKQoihqLW-140">
          <mxGeometry relative="1" as="geometry">
            <mxPoint x="2475.2449999999994" y="1876.25" as="targetPoint" />
          </mxGeometry>
        </mxCell>
        <mxCell id="tY5H8uWJdQBPKQoihqLW-123" value="FALSE" style="edgeLabel;html=1;align=center;verticalAlign=middle;resizable=0;points=[];strokeColor=#001DBC;spacingLeft=15;spacingRight=15;spacingBottom=0;fontFamily=lexend light;fontSize=14;fontColor=#ffffff;fillColor=#0050ef;" vertex="1" connectable="0" parent="tY5H8uWJdQBPKQoihqLW-122">
          <mxGeometry x="-0.2184" y="-1" relative="1" as="geometry">
            <mxPoint as="offset" />
          </mxGeometry>
        </mxCell>
        <mxCell id="tY5H8uWJdQBPKQoihqLW-124" value="Max daily sets exceeded?" style="shape=hexagon;perimeter=hexagonPerimeter2;whiteSpace=wrap;html=1;fixedSize=1;size=15;fillColor=#008a00;fontColor=#ffffff;strokeColor=#005700;fontFamily=lexend light;fontSize=14;spacingBottom=0;spacingLeft=15;spacingRight=15;" vertex="1" parent="1">
          <mxGeometry x="2398.69" y="1617.9400000000005" width="153.13" height="60" as="geometry" />
        </mxCell>
        <mxCell id="tY5H8uWJdQBPKQoihqLW-125" value="" style="edgeStyle=orthogonalEdgeStyle;rounded=0;orthogonalLoop=1;jettySize=auto;html=1;exitX=1;exitY=0.5;exitDx=0;exitDy=0;entryX=0;entryY=0.5;entryDx=0;entryDy=0;fontFamily=lexend light;fontSize=14;fontColor=default;" edge="1" parent="1" source="tY5H8uWJdQBPKQoihqLW-89" target="tY5H8uWJdQBPKQoihqLW-129">
          <mxGeometry relative="1" as="geometry">
            <mxPoint x="3073.18" y="1273.56" as="sourcePoint" />
            <mxPoint x="3393.18" y="1272.56" as="targetPoint" />
          </mxGeometry>
        </mxCell>
        <mxCell id="tY5H8uWJdQBPKQoihqLW-126" style="edgeStyle=orthogonalEdgeStyle;rounded=0;orthogonalLoop=1;jettySize=auto;html=1;exitX=1;exitY=0.5;exitDx=0;exitDy=0;entryX=0;entryY=0.5;entryDx=0;entryDy=0;fontFamily=lexend light;fontSize=14;fontColor=default;" edge="1" parent="1" source="tY5H8uWJdQBPKQoihqLW-129" target="tY5H8uWJdQBPKQoihqLW-130">
          <mxGeometry relative="1" as="geometry" />
        </mxCell>
        <mxCell id="tY5H8uWJdQBPKQoihqLW-127" value="FALSE" style="edgeLabel;html=1;align=center;verticalAlign=middle;resizable=0;points=[];strokeColor=default;spacingLeft=15;spacingRight=15;spacingBottom=0;fontFamily=lexend light;fontSize=14;fontColor=default;fillColor=default;" vertex="1" connectable="0" parent="tY5H8uWJdQBPKQoihqLW-126">
          <mxGeometry x="0.1511" y="-1" relative="1" as="geometry">
            <mxPoint x="-10" y="-1" as="offset" />
          </mxGeometry>
        </mxCell>
        <mxCell id="tY5H8uWJdQBPKQoihqLW-128" style="edgeStyle=orthogonalEdgeStyle;rounded=0;orthogonalLoop=1;jettySize=auto;html=1;exitX=0.75;exitY=1;exitDx=0;exitDy=0;entryX=0.5;entryY=0;entryDx=0;entryDy=0;fontFamily=lexend light;fontSize=14;fontColor=#ffffff;" edge="1" parent="1" source="tY5H8uWJdQBPKQoihqLW-129" target="tY5H8uWJdQBPKQoihqLW-133">
          <mxGeometry relative="1" as="geometry" />
        </mxCell>
        <mxCell id="tY5H8uWJdQBPKQoihqLW-129" value="&lt;div&gt;FOR EACH&lt;/div&gt;&lt;div&gt;valid muscle group&lt;/div&gt;&lt;div&gt;&lt;b&gt;(start at a random index)&lt;/b&gt;&lt;br&gt;&lt;/div&gt;" style="whiteSpace=wrap;html=1;fontFamily=lexend light;fontSize=14;spacingBottom=0;spacingLeft=15;spacingRight=15;shape=trapezoid;perimeter=trapezoidPerimeter;fixedSize=1;" vertex="1" parent="1">
          <mxGeometry x="3228.93" y="1041.25" width="267.45" height="70" as="geometry" />
        </mxCell>
        <mxCell id="tY5H8uWJdQBPKQoihqLW-130" value="Return" style="ellipse;whiteSpace=wrap;html=1;rounded=0;fillColor=#a20025;fontColor=#ffffff;strokeColor=#6F0000;fontFamily=lexend light;fontSize=14;spacingBottom=0;spacingLeft=15;spacingRight=15;" vertex="1" parent="1">
          <mxGeometry x="3573.68" y="1036.56" width="80" height="80" as="geometry" />
        </mxCell>
        <mxCell id="tY5H8uWJdQBPKQoihqLW-131" value="As you can see on the flow chart, I add only one exercise per day, then cycle through all days until all muscle groups have been looked at, instead of adding all exercises for one day, then moving on to the next.&lt;div&gt;&lt;br&gt;&lt;/div&gt;&lt;div&gt;I did this because it more evenly distributes exercises across the days.&amp;nbsp;&lt;/div&gt;" style="whiteSpace=wrap;html=1;fontFamily=lexend light;fontSize=14;spacingBottom=0;spacingLeft=15;spacingRight=15;fillColor=#f0a30a;fontColor=#000000;strokeColor=#BD7000;" vertex="1" parent="1">
          <mxGeometry x="3093.68" y="1352.44" width="260" height="376.56" as="geometry" />
        </mxCell>
        <mxCell id="tY5H8uWJdQBPKQoihqLW-132" style="edgeStyle=orthogonalEdgeStyle;rounded=0;orthogonalLoop=1;jettySize=auto;html=1;exitX=0.5;exitY=1;exitDx=0;exitDy=0;entryX=0.25;entryY=0;entryDx=0;entryDy=0;fontFamily=lexend light;fontSize=14;fontColor=#ffffff;" edge="1" parent="1" source="tY5H8uWJdQBPKQoihqLW-133" target="tY5H8uWJdQBPKQoihqLW-93">
          <mxGeometry relative="1" as="geometry" />
        </mxCell>
        <mxCell id="tY5H8uWJdQBPKQoihqLW-133" value="Next muscle group" style="whiteSpace=wrap;html=1;fontFamily=lexend light;fontSize=14;spacingBottom=0;spacingLeft=15;spacingRight=15;" vertex="1" parent="1">
          <mxGeometry x="3361.18" y="1150.88" width="135.51" height="48.31" as="geometry" />
        </mxCell>
        <mxCell id="tY5H8uWJdQBPKQoihqLW-134" value="&lt;div&gt;Remember to start at a random index&amp;nbsp;&lt;span style=&quot;background-color: initial;&quot;&gt;when looking through muscle&amp;nbsp;&lt;/span&gt;&lt;span style=&quot;background-color: initial;&quot;&gt;groups.&lt;/span&gt;&lt;/div&gt;&lt;div&gt;&lt;br&gt;&lt;/div&gt;&lt;div&gt;This ensures that there is an equal chance&amp;nbsp;&lt;span style=&quot;background-color: initial;&quot;&gt;for all muscle groups to be considered first&amp;nbsp;&lt;/span&gt;&lt;span style=&quot;background-color: initial;&quot;&gt;instead of just the the ones that come&amp;nbsp;&lt;/span&gt;&lt;span style=&quot;background-color: initial;&quot;&gt;first in the array of possible resistance&amp;nbsp;&lt;/span&gt;&lt;span style=&quot;background-color: initial;&quot;&gt;exercises.&lt;/span&gt;&lt;/div&gt;" style="whiteSpace=wrap;html=1;fontFamily=lexend light;fontSize=14;spacingBottom=0;spacingLeft=15;spacingRight=15;fillColor=#f0a30a;fontColor=#000000;strokeColor=#BD7000;" vertex="1" parent="1">
          <mxGeometry x="2953.68" y="836.25" width="390" height="170" as="geometry" />
        </mxCell>
        <mxCell id="tY5H8uWJdQBPKQoihqLW-135" value="" style="edgeStyle=orthogonalEdgeStyle;rounded=0;orthogonalLoop=1;jettySize=auto;html=1;exitX=0.5;exitY=1;exitDx=0;exitDy=0;entryX=0.5;entryY=0;entryDx=0;entryDy=0;fontFamily=lexend light;fontSize=14;fontColor=default;" edge="1" parent="1" source="tY5H8uWJdQBPKQoihqLW-139" target="tY5H8uWJdQBPKQoihqLW-137">
          <mxGeometry relative="1" as="geometry">
            <mxPoint x="2475.68" y="1678.25" as="sourcePoint" />
            <mxPoint x="2475.68" y="1767.25" as="targetPoint" />
          </mxGeometry>
        </mxCell>
        <mxCell id="tY5H8uWJdQBPKQoihqLW-136" style="edgeStyle=orthogonalEdgeStyle;rounded=0;orthogonalLoop=1;jettySize=auto;html=1;exitX=0;exitY=0.5;exitDx=0;exitDy=0;entryX=0.25;entryY=1;entryDx=0;entryDy=0;fontFamily=lexend light;fontSize=14;fontColor=#ffffff;" edge="1" parent="1" source="tY5H8uWJdQBPKQoihqLW-137" target="tY5H8uWJdQBPKQoihqLW-102">
          <mxGeometry relative="1" as="geometry" />
        </mxCell>
        <mxCell id="tY5H8uWJdQBPKQoihqLW-137" value="Routine already includes the candidate?" style="shape=hexagon;perimeter=hexagonPerimeter2;whiteSpace=wrap;html=1;fixedSize=1;size=15;fillColor=#008a00;fontColor=#ffffff;strokeColor=#005700;fontFamily=lexend light;fontSize=14;spacingBottom=0;spacingLeft=15;spacingRight=15;" vertex="1" parent="1">
          <mxGeometry x="2396.85" y="1811.250000000001" width="153.13" height="60" as="geometry" />
        </mxCell>
        <mxCell id="tY5H8uWJdQBPKQoihqLW-138" value="" style="edgeStyle=orthogonalEdgeStyle;rounded=0;orthogonalLoop=1;jettySize=auto;html=1;exitX=0.5;exitY=1;exitDx=0;exitDy=0;entryX=0.5;entryY=0;entryDx=0;entryDy=0;fontFamily=lexend light;fontSize=14;fontColor=default;" edge="1" parent="1" source="tY5H8uWJdQBPKQoihqLW-124" target="tY5H8uWJdQBPKQoihqLW-139">
          <mxGeometry relative="1" as="geometry">
            <mxPoint x="2475.68" y="1678.25" as="sourcePoint" />
            <mxPoint x="2475.68" y="1766.25" as="targetPoint" />
          </mxGeometry>
        </mxCell>
        <mxCell id="tY5H8uWJdQBPKQoihqLW-139" value="Store as the last checked valid exercise" style="whiteSpace=wrap;html=1;fontFamily=lexend light;fontSize=14;spacingBottom=0;spacingLeft=15;spacingRight=15;" vertex="1" parent="1">
          <mxGeometry x="2386.8199999999997" y="1706.25" width="176.86" height="80" as="geometry" />
        </mxCell>
        <mxCell id="tY5H8uWJdQBPKQoihqLW-140" value="Return candidate" style="ellipse;whiteSpace=wrap;html=1;rounded=0;fillColor=#a20025;fontColor=#ffffff;strokeColor=#6F0000;fontFamily=lexend light;fontSize=14;spacingBottom=0;spacingLeft=15;spacingRight=15;" vertex="1" parent="1">
          <mxGeometry x="2433.419999999999" y="1916.25" width="80" height="80" as="geometry" />
        </mxCell>
        <mxCell id="tY5H8uWJdQBPKQoihqLW-141" value="" style="edgeStyle=orthogonalEdgeStyle;rounded=0;orthogonalLoop=1;jettySize=auto;html=1;exitX=1;exitY=0.5;exitDx=0;exitDy=0;entryX=0;entryY=0.5;entryDx=0;entryDy=0;fontFamily=lexend light;fontSize=14;fontColor=default;" edge="1" parent="1" source="tY5H8uWJdQBPKQoihqLW-102" target="tY5H8uWJdQBPKQoihqLW-145">
          <mxGeometry relative="1" as="geometry">
            <mxPoint x="2512.68" y="1168.25" as="sourcePoint" />
            <mxPoint x="2703.68" y="1168.25" as="targetPoint" />
          </mxGeometry>
        </mxCell>
        <mxCell id="tY5H8uWJdQBPKQoihqLW-142" value="END" style="edgeLabel;html=1;align=center;verticalAlign=middle;resizable=0;points=[];strokeColor=default;spacingLeft=15;spacingRight=15;spacingBottom=0;fontFamily=lexend light;fontSize=14;fontColor=default;fillColor=default;" vertex="1" connectable="0" parent="tY5H8uWJdQBPKQoihqLW-141">
          <mxGeometry x="-0.2327" y="1" relative="1" as="geometry">
            <mxPoint x="3" y="1" as="offset" />
          </mxGeometry>
        </mxCell>
        <mxCell id="tY5H8uWJdQBPKQoihqLW-143" style="edgeStyle=orthogonalEdgeStyle;rounded=0;orthogonalLoop=1;jettySize=auto;html=1;exitX=0.5;exitY=1;exitDx=0;exitDy=0;entryX=0.5;entryY=0;entryDx=0;entryDy=0;fontFamily=lexend light;fontSize=14;fontColor=#ffffff;" edge="1" parent="1" source="tY5H8uWJdQBPKQoihqLW-145" target="tY5H8uWJdQBPKQoihqLW-146">
          <mxGeometry relative="1" as="geometry" />
        </mxCell>
        <mxCell id="tY5H8uWJdQBPKQoihqLW-144" value="TRUE" style="edgeLabel;html=1;align=center;verticalAlign=middle;resizable=0;points=[];strokeColor=#001DBC;spacingLeft=15;spacingRight=15;spacingBottom=0;fontFamily=lexend light;fontSize=14;fontColor=#ffffff;fillColor=#0050ef;" vertex="1" connectable="0" parent="tY5H8uWJdQBPKQoihqLW-143">
          <mxGeometry x="-0.2541" relative="1" as="geometry">
            <mxPoint as="offset" />
          </mxGeometry>
        </mxCell>
        <mxCell id="tY5H8uWJdQBPKQoihqLW-145" value="Have you been able to store a valid exercise?" style="shape=hexagon;perimeter=hexagonPerimeter2;whiteSpace=wrap;html=1;fixedSize=1;size=15;fillColor=#008a00;fontColor=#ffffff;strokeColor=#005700;fontFamily=lexend light;fontSize=14;spacingBottom=0;spacingLeft=15;spacingRight=15;" vertex="1" parent="1">
          <mxGeometry x="2593.6800000000007" y="1139.1900000000005" width="153.13" height="60" as="geometry" />
        </mxCell>
        <mxCell id="tY5H8uWJdQBPKQoihqLW-146" value="Return candidate" style="ellipse;whiteSpace=wrap;html=1;rounded=0;fillColor=#a20025;fontColor=#ffffff;strokeColor=#6F0000;fontFamily=lexend light;fontSize=14;spacingBottom=0;spacingLeft=15;spacingRight=15;" vertex="1" parent="1">
          <mxGeometry x="2630.2499999999995" y="1252.4400000000005" width="80" height="80" as="geometry" />
        </mxCell>
        <mxCell id="tY5H8uWJdQBPKQoihqLW-147" value="&lt;div&gt;Remember to start at a random index&amp;nbsp;&lt;span style=&quot;background-color: initial;&quot;&gt;when looking through&lt;/span&gt;&lt;span style=&quot;background-color: initial;&quot;&gt;&amp;nbsp;exercises.&lt;/span&gt;&lt;/div&gt;&lt;div&gt;&lt;br&gt;&lt;/div&gt;&lt;div&gt;This ensures that there is an equal chance&amp;nbsp;&lt;span style=&quot;background-color: initial;&quot;&gt;for all exercises to be considered&amp;nbsp;&lt;/span&gt;&lt;span style=&quot;background-color: initial;&quot;&gt;instead of just the the ones that come&amp;nbsp;&lt;/span&gt;&lt;span style=&quot;background-color: initial;&quot;&gt;first in the array of possible resistance&amp;nbsp;&lt;/span&gt;&lt;span style=&quot;background-color: initial;&quot;&gt;exercises.&lt;/span&gt;&lt;/div&gt;" style="whiteSpace=wrap;html=1;fontFamily=lexend light;fontSize=14;spacingBottom=0;spacingLeft=15;spacingRight=15;fillColor=#f0a30a;fontColor=#000000;strokeColor=#BD7000;" vertex="1" parent="1">
          <mxGeometry x="1900" y="946.56" width="360.26" height="170" as="geometry" />
        </mxCell>
        <mxCell id="tY5H8uWJdQBPKQoihqLW-148" value="&lt;div&gt;First, we want to try to find unique&amp;nbsp;&lt;span style=&quot;background-color: initial;&quot;&gt;resistance exercises for each workout.&lt;/span&gt;&lt;/div&gt;" style="whiteSpace=wrap;html=1;fontFamily=lexend light;fontSize=14;spacingBottom=0;spacingLeft=15;spacingRight=15;fillColor=#f0a30a;fontColor=#000000;strokeColor=#BD7000;" vertex="1" parent="1">
          <mxGeometry x="2303.24" y="1026.25" width="210" height="85" as="geometry" />
        </mxCell>
        <mxCell id="tY5H8uWJdQBPKQoihqLW-149" value="&lt;div&gt;If we cannot find any unique exercises&amp;nbsp;&lt;span style=&quot;background-color: initial;&quot;&gt;we must settle for an already used one, provided that&lt;/span&gt;&lt;span style=&quot;background-color: initial;&quot;&gt;&amp;nbsp;there is a valid one to be found.&lt;/span&gt;&lt;/div&gt;" style="whiteSpace=wrap;html=1;fontFamily=lexend light;fontSize=14;spacingBottom=0;spacingLeft=15;spacingRight=15;fillColor=#f0a30a;fontColor=#000000;strokeColor=#BD7000;" vertex="1" parent="1">
          <mxGeometry x="2573.68" y="1016.25" width="210" height="102.81" as="geometry" />
        </mxCell>
        <mxCell id="tY5H8uWJdQBPKQoihqLW-150" value="There is a flaw to choosing resistance days like this, where we just start by checking the first workouts. Doing it like this means that we might pick days where the trainee has not got much workout time, which isn&#39;t ideal for full body resistance training, as it takes a bit of time to perform enough exercises to target all muscle groups. Then it would be better to do resistance training on days where you have more time.&lt;div&gt;&lt;br&gt;&lt;/div&gt;&lt;div&gt;It would, however, become much more complicated if we were to check for the days with the most available work out time, as it brings compleities of it&#39;s own. For example, if you can train all week except Saturday, and your biggest available times are on first on Tuesday and second on Thursday, and you&#39;re an advanced beginner who can train 3 times a week, you would (by using this method) be recommended a routine with only 2 workout days, whereas just our method of just taking the first workout in the array first would provide 2 workout days.&lt;/div&gt;&lt;div&gt;&lt;br&gt;&lt;/div&gt;&lt;div&gt;All in all, our method is best for getting the most amount of resistance workout days, but it does not necessarily give the best time-efficieny / workout quality. If that makes sense?&lt;/div&gt;" style="whiteSpace=wrap;html=1;fontFamily=lexend light;fontSize=14;spacingBottom=0;spacingLeft=15;spacingRight=15;fillColor=#f0a30a;fontColor=#000000;strokeColor=#BD7000;" vertex="1" parent="1">
          <mxGeometry x="380" y="1996.25" width="737.64" height="308.77" as="geometry" />
        </mxCell>
        <mxCell id="tY5H8uWJdQBPKQoihqLW-151" style="edgeStyle=orthogonalEdgeStyle;rounded=0;orthogonalLoop=1;jettySize=auto;html=1;exitX=1;exitY=0.5;exitDx=0;exitDy=0;entryX=0.5;entryY=0;entryDx=0;entryDy=0;fontFamily=lexend light;fontSize=14;fontColor=default;" edge="1" parent="1" source="tY5H8uWJdQBPKQoihqLW-155" target="tY5H8uWJdQBPKQoihqLW-9">
          <mxGeometry relative="1" as="geometry">
            <Array as="points">
              <mxPoint x="1061" y="2588.25" />
            </Array>
          </mxGeometry>
        </mxCell>
        <mxCell id="tY5H8uWJdQBPKQoihqLW-152" value="END" style="edgeLabel;html=1;align=center;verticalAlign=middle;resizable=0;points=[];strokeColor=default;spacingLeft=15;spacingRight=15;spacingBottom=0;fontFamily=lexend light;fontSize=14;fontColor=default;fillColor=default;" vertex="1" connectable="0" parent="tY5H8uWJdQBPKQoihqLW-151">
          <mxGeometry x="-0.8716" y="2" relative="1" as="geometry">
            <mxPoint x="9" y="2" as="offset" />
          </mxGeometry>
        </mxCell>
        <mxCell id="tY5H8uWJdQBPKQoihqLW-153" style="edgeStyle=orthogonalEdgeStyle;rounded=0;orthogonalLoop=1;jettySize=auto;html=1;exitX=0.25;exitY=1;exitDx=0;exitDy=0;entryX=0.5;entryY=0;entryDx=0;entryDy=0;fontFamily=lexend light;fontSize=14;fontColor=default;" edge="1" parent="1" source="tY5H8uWJdQBPKQoihqLW-155" target="tY5H8uWJdQBPKQoihqLW-157">
          <mxGeometry relative="1" as="geometry">
            <Array as="points">
              <mxPoint x="856" y="2615.25" />
            </Array>
          </mxGeometry>
        </mxCell>
        <mxCell id="tY5H8uWJdQBPKQoihqLW-154" value="START" style="edgeLabel;html=1;align=center;verticalAlign=middle;resizable=0;points=[];strokeColor=default;spacingLeft=15;spacingRight=15;spacingBottom=0;fontFamily=lexend light;fontSize=14;fontColor=default;fillColor=default;" vertex="1" connectable="0" parent="tY5H8uWJdQBPKQoihqLW-153">
          <mxGeometry x="0.0467" relative="1" as="geometry">
            <mxPoint y="3" as="offset" />
          </mxGeometry>
        </mxCell>
        <mxCell id="tY5H8uWJdQBPKQoihqLW-155" value="FOR EACH&lt;div&gt;resistance training day&lt;/div&gt;" style="whiteSpace=wrap;html=1;fontFamily=lexend light;fontSize=14;spacingBottom=0;spacingLeft=15;spacingRight=15;shape=trapezoid;perimeter=trapezoidPerimeter;fixedSize=1;" vertex="1" parent="1">
          <mxGeometry x="786" y="2562.25" width="226.75" height="52.5" as="geometry" />
        </mxCell>
        <mxCell id="tY5H8uWJdQBPKQoihqLW-156" style="edgeStyle=orthogonalEdgeStyle;rounded=0;orthogonalLoop=1;jettySize=auto;html=1;exitX=0.5;exitY=1;exitDx=0;exitDy=0;entryX=0.5;entryY=0;entryDx=0;entryDy=0;fontFamily=lexend light;fontSize=14;fontColor=default;" edge="1" parent="1" source="tY5H8uWJdQBPKQoihqLW-157" target="tY5H8uWJdQBPKQoihqLW-7">
          <mxGeometry relative="1" as="geometry" />
        </mxCell>
        <mxCell id="tY5H8uWJdQBPKQoihqLW-157" value="Next resistance day" style="whiteSpace=wrap;html=1;fontFamily=lexend light;fontSize=14;spacingBottom=0;spacingLeft=15;spacingRight=15;" vertex="1" parent="1">
          <mxGeometry x="790" y="2656.25" width="132.15" height="60" as="geometry" />
        </mxCell>
      </root>
    </mxGraphModel>
  </diagram>
  <diagram id="EVVPjhaXF0A8ZLtgbZGw" name="Luna&#39;s Corner">
    <mxGraphModel dx="2248" dy="3704" grid="1" gridSize="10" guides="1" tooltips="1" connect="1" arrows="1" fold="1" page="1" pageScale="1" pageWidth="2000" pageHeight="2000" math="0" shadow="0">
      <root>
        <mxCell id="0" />
        <mxCell id="1" parent="0" />
        <mxCell id="yNmEUhzYjuj3kyeLYS_d-1" style="edgeStyle=orthogonalEdgeStyle;rounded=0;orthogonalLoop=1;jettySize=auto;html=1;exitX=1;exitY=0.5;exitDx=0;exitDy=0;entryX=0;entryY=0.5;entryDx=0;entryDy=0;fontFamily=lexend light;fontSize=14;fontColor=default;" edge="1" parent="1" source="yNmEUhzYjuj3kyeLYS_d-2" target="yNmEUhzYjuj3kyeLYS_d-39">
          <mxGeometry relative="1" as="geometry" />
        </mxCell>
        <mxCell id="yNmEUhzYjuj3kyeLYS_d-2" value="Add aerobic&amp;nbsp;&lt;div&gt;exercises&lt;/div&gt;" style="whiteSpace=wrap;html=1;shape=parallelogram;boundedLbl=1;backgroundOutline=1;size=15;fillColor=#0050ef;fontColor=#ffffff;strokeColor=#001DBC;fontFamily=lexend light;fontSize=14;fixedSize=1;perimeter=parallelogramPerimeter;" vertex="1" parent="1">
          <mxGeometry x="5955.009999999999" y="814.0799999999999" width="150" height="80" as="geometry" />
        </mxCell>
        <mxCell id="yNmEUhzYjuj3kyeLYS_d-3" style="edgeStyle=orthogonalEdgeStyle;rounded=0;orthogonalLoop=1;jettySize=auto;html=1;exitX=0.75;exitY=1;exitDx=0;exitDy=0;entryX=0.5;entryY=0;entryDx=0;entryDy=0;fontFamily=lexend light;fontSize=14;fontColor=default;" edge="1" parent="1" source="yNmEUhzYjuj3kyeLYS_d-7" target="yNmEUhzYjuj3kyeLYS_d-9">
          <mxGeometry relative="1" as="geometry" />
        </mxCell>
        <mxCell id="yNmEUhzYjuj3kyeLYS_d-4" value="START" style="edgeLabel;html=1;align=center;verticalAlign=middle;resizable=0;points=[];strokeColor=default;spacingLeft=15;spacingRight=15;spacingBottom=0;fontFamily=lexend light;fontSize=14;fontColor=default;fillColor=default;" vertex="1" connectable="0" parent="yNmEUhzYjuj3kyeLYS_d-3">
          <mxGeometry x="0.0026" y="2" relative="1" as="geometry">
            <mxPoint as="offset" />
          </mxGeometry>
        </mxCell>
        <mxCell id="yNmEUhzYjuj3kyeLYS_d-5" style="edgeStyle=orthogonalEdgeStyle;rounded=0;orthogonalLoop=1;jettySize=auto;html=1;exitX=0;exitY=0.5;exitDx=0;exitDy=0;entryX=0.25;entryY=1;entryDx=0;entryDy=0;fontFamily=lexend light;fontSize=14;fontColor=default;" edge="1" parent="1" source="yNmEUhzYjuj3kyeLYS_d-7" target="yNmEUhzYjuj3kyeLYS_d-39">
          <mxGeometry relative="1" as="geometry">
            <Array as="points">
              <mxPoint x="6189.009999999999" y="977.0799999999999" />
            </Array>
          </mxGeometry>
        </mxCell>
        <mxCell id="yNmEUhzYjuj3kyeLYS_d-6" value="END" style="edgeLabel;html=1;align=center;verticalAlign=middle;resizable=0;points=[];strokeColor=default;spacingLeft=15;spacingRight=15;spacingBottom=0;fontFamily=lexend light;fontSize=14;fontColor=default;fillColor=default;" vertex="1" connectable="0" parent="yNmEUhzYjuj3kyeLYS_d-5">
          <mxGeometry x="-0.3693" y="-1" relative="1" as="geometry">
            <mxPoint x="9" y="1" as="offset" />
          </mxGeometry>
        </mxCell>
        <mxCell id="yNmEUhzYjuj3kyeLYS_d-7" value="FOR EACH&lt;div&gt;aerobic training day&lt;/div&gt;" style="whiteSpace=wrap;html=1;fontFamily=lexend light;fontSize=14;spacingBottom=0;spacingLeft=15;spacingRight=15;shape=trapezoid;perimeter=trapezoidPerimeter;fixedSize=1;" vertex="1" parent="1">
          <mxGeometry x="6244.249999999999" y="941.69" width="218.25" height="70" as="geometry" />
        </mxCell>
        <mxCell id="yNmEUhzYjuj3kyeLYS_d-8" style="edgeStyle=orthogonalEdgeStyle;rounded=0;orthogonalLoop=1;jettySize=auto;html=1;exitX=0.5;exitY=1;exitDx=0;exitDy=0;entryX=0.5;entryY=0;entryDx=0;entryDy=0;fontFamily=lexend light;fontSize=14;fontColor=default;" edge="1" parent="1" source="yNmEUhzYjuj3kyeLYS_d-9" target="yNmEUhzYjuj3kyeLYS_d-13">
          <mxGeometry relative="1" as="geometry" />
        </mxCell>
        <mxCell id="yNmEUhzYjuj3kyeLYS_d-9" value="Next day" style="whiteSpace=wrap;html=1;fontFamily=lexend light;fontSize=14;spacingBottom=0;spacingLeft=15;spacingRight=15;" vertex="1" parent="1">
          <mxGeometry x="6358.7" y="1058.67" width="100" height="70" as="geometry" />
        </mxCell>
        <mxCell id="yNmEUhzYjuj3kyeLYS_d-10" style="edgeStyle=orthogonalEdgeStyle;rounded=0;orthogonalLoop=1;jettySize=auto;html=1;exitX=0.5;exitY=1;exitDx=0;exitDy=0;entryX=0.5;entryY=0;entryDx=0;entryDy=0;fontFamily=lexend light;fontSize=14;fontColor=default;" edge="1" parent="1" source="yNmEUhzYjuj3kyeLYS_d-13" target="yNmEUhzYjuj3kyeLYS_d-19">
          <mxGeometry relative="1" as="geometry" />
        </mxCell>
        <mxCell id="yNmEUhzYjuj3kyeLYS_d-11" value="FALSE" style="edgeLabel;html=1;align=center;verticalAlign=middle;resizable=0;points=[];strokeColor=default;spacingLeft=15;spacingRight=15;spacingBottom=0;fontFamily=lexend light;fontSize=14;fontColor=default;fillColor=default;" vertex="1" connectable="0" parent="yNmEUhzYjuj3kyeLYS_d-10">
          <mxGeometry x="-0.1942" y="-2" relative="1" as="geometry">
            <mxPoint as="offset" />
          </mxGeometry>
        </mxCell>
        <mxCell id="yNmEUhzYjuj3kyeLYS_d-12" style="edgeStyle=orthogonalEdgeStyle;rounded=0;orthogonalLoop=1;jettySize=auto;html=1;exitX=0;exitY=0.5;exitDx=0;exitDy=0;entryX=0.25;entryY=1;entryDx=0;entryDy=0;fontFamily=lexend light;fontSize=14;fontColor=default;" edge="1" parent="1" source="yNmEUhzYjuj3kyeLYS_d-13" target="yNmEUhzYjuj3kyeLYS_d-7">
          <mxGeometry relative="1" as="geometry" />
        </mxCell>
        <mxCell id="yNmEUhzYjuj3kyeLYS_d-13" value="More than 3 aerobic exercises that day?" style="shape=hexagon;perimeter=hexagonPerimeter2;whiteSpace=wrap;html=1;fixedSize=1;size=15;fillColor=#008a00;fontColor=#ffffff;strokeColor=#005700;fontFamily=lexend light;fontSize=14;spacingBottom=0;spacingLeft=15;spacingRight=15;" vertex="1" parent="1">
          <mxGeometry x="6332.13" y="1162.5099999999998" width="153.58" height="60" as="geometry" />
        </mxCell>
        <mxCell id="yNmEUhzYjuj3kyeLYS_d-14" style="edgeStyle=orthogonalEdgeStyle;rounded=0;orthogonalLoop=1;jettySize=auto;html=1;exitX=0.5;exitY=1;exitDx=0;exitDy=0;entryX=0.5;entryY=0;entryDx=0;entryDy=0;fontFamily=lexend light;fontSize=14;fontColor=default;" edge="1" parent="1" source="yNmEUhzYjuj3kyeLYS_d-17" target="yNmEUhzYjuj3kyeLYS_d-21">
          <mxGeometry relative="1" as="geometry">
            <mxPoint x="6408.0199999999995" y="1451.77" as="targetPoint" />
          </mxGeometry>
        </mxCell>
        <mxCell id="yNmEUhzYjuj3kyeLYS_d-15" value="TRUE" style="edgeLabel;html=1;align=center;verticalAlign=middle;resizable=0;points=[];strokeColor=default;spacingLeft=15;spacingRight=15;spacingBottom=0;fontFamily=lexend light;fontSize=14;fontColor=default;fillColor=default;" vertex="1" connectable="0" parent="yNmEUhzYjuj3kyeLYS_d-14">
          <mxGeometry x="-0.288" y="1" relative="1" as="geometry">
            <mxPoint as="offset" />
          </mxGeometry>
        </mxCell>
        <mxCell id="yNmEUhzYjuj3kyeLYS_d-16" style="edgeStyle=orthogonalEdgeStyle;rounded=0;orthogonalLoop=1;jettySize=auto;html=1;exitX=0;exitY=0.5;exitDx=0;exitDy=0;entryX=0.25;entryY=1;entryDx=0;entryDy=0;fontFamily=lexend light;fontSize=14;fontColor=default;" edge="1" parent="1" source="yNmEUhzYjuj3kyeLYS_d-17" target="yNmEUhzYjuj3kyeLYS_d-7">
          <mxGeometry relative="1" as="geometry" />
        </mxCell>
        <mxCell id="yNmEUhzYjuj3kyeLYS_d-17" value="Candidate found?" style="shape=hexagon;perimeter=hexagonPerimeter2;whiteSpace=wrap;html=1;fixedSize=1;size=15;fillColor=#008a00;fontColor=#ffffff;strokeColor=#005700;fontFamily=lexend light;fontSize=14;spacingBottom=0;spacingLeft=15;spacingRight=15;" vertex="1" parent="1">
          <mxGeometry x="6332.580000000001" y="1363.9100000000003" width="153.13" height="60" as="geometry" />
        </mxCell>
        <mxCell id="yNmEUhzYjuj3kyeLYS_d-18" style="edgeStyle=orthogonalEdgeStyle;rounded=0;orthogonalLoop=1;jettySize=auto;html=1;exitX=0.5;exitY=1;exitDx=0;exitDy=0;entryX=0.5;entryY=0;entryDx=0;entryDy=0;fontFamily=lexend light;fontSize=14;fontColor=default;" edge="1" parent="1" source="yNmEUhzYjuj3kyeLYS_d-19" target="yNmEUhzYjuj3kyeLYS_d-17">
          <mxGeometry relative="1" as="geometry" />
        </mxCell>
        <mxCell id="yNmEUhzYjuj3kyeLYS_d-19" value="Find &lt;b&gt;aerobic &lt;/b&gt;exercise candidate" style="whiteSpace=wrap;html=1;fontFamily=lexend light;fontSize=14;spacingBottom=0;spacingLeft=15;spacingRight=15;shape=parallelogram;perimeter=parallelogramPerimeter;fixedSize=1;fillColor=#d80073;fontColor=#ffffff;strokeColor=#A50040;" vertex="1" parent="1">
          <mxGeometry x="6321.930000000001" y="1271.2600000000002" width="173.97" height="62.5" as="geometry" />
        </mxCell>
        <mxCell id="yNmEUhzYjuj3kyeLYS_d-20" style="edgeStyle=orthogonalEdgeStyle;rounded=0;orthogonalLoop=1;jettySize=auto;html=1;exitX=0;exitY=0.5;exitDx=0;exitDy=0;entryX=0.25;entryY=1;entryDx=0;entryDy=0;" edge="1" parent="1" source="yNmEUhzYjuj3kyeLYS_d-21" target="yNmEUhzYjuj3kyeLYS_d-7">
          <mxGeometry relative="1" as="geometry" />
        </mxCell>
        <mxCell id="yNmEUhzYjuj3kyeLYS_d-21" value="Add exercise" style="whiteSpace=wrap;html=1;fontFamily=lexend light;fontSize=14;spacingBottom=0;spacingLeft=15;spacingRight=15;" vertex="1" parent="1">
          <mxGeometry x="6368.7" y="1470.4" width="80" height="55" as="geometry" />
        </mxCell>
        <mxCell id="yNmEUhzYjuj3kyeLYS_d-22" style="edgeStyle=orthogonalEdgeStyle;rounded=0;orthogonalLoop=1;jettySize=auto;html=1;exitX=0.75;exitY=1;exitDx=0;exitDy=0;entryX=0.5;entryY=0;entryDx=0;entryDy=0;fontFamily=lexend light;fontSize=14;fontColor=default;" edge="1" parent="1" source="yNmEUhzYjuj3kyeLYS_d-25" target="yNmEUhzYjuj3kyeLYS_d-31">
          <mxGeometry relative="1" as="geometry">
            <Array as="points">
              <mxPoint x="7150.110000000001" y="951.5000000000005" />
              <mxPoint x="7150.110000000001" y="982.5000000000005" />
            </Array>
          </mxGeometry>
        </mxCell>
        <mxCell id="yNmEUhzYjuj3kyeLYS_d-23" value="START" style="edgeLabel;html=1;align=center;verticalAlign=middle;resizable=0;points=[];strokeColor=default;spacingLeft=15;spacingRight=15;spacingBottom=0;fontFamily=lexend light;fontSize=14;fontColor=default;fillColor=default;" vertex="1" connectable="0" parent="yNmEUhzYjuj3kyeLYS_d-22">
          <mxGeometry x="-0.3372" relative="1" as="geometry">
            <mxPoint y="11" as="offset" />
          </mxGeometry>
        </mxCell>
        <mxCell id="yNmEUhzYjuj3kyeLYS_d-24" style="edgeStyle=orthogonalEdgeStyle;rounded=0;orthogonalLoop=1;jettySize=auto;html=1;exitX=1;exitY=0.5;exitDx=0;exitDy=0;entryX=0;entryY=0.5;entryDx=0;entryDy=0;fontFamily=lexend light;fontSize=14;fontColor=default;" edge="1" parent="1" source="yNmEUhzYjuj3kyeLYS_d-25" target="yNmEUhzYjuj3kyeLYS_d-86">
          <mxGeometry relative="1" as="geometry" />
        </mxCell>
        <mxCell id="yNmEUhzYjuj3kyeLYS_d-25" value="FOR EACH&lt;div&gt;valid&amp;nbsp;&lt;b&gt;aerobic &lt;/b&gt;exercise&lt;/div&gt;&lt;div&gt;(start at a random index)&lt;/div&gt;" style="whiteSpace=wrap;html=1;fontFamily=lexend light;fontSize=14;spacingBottom=0;spacingLeft=15;spacingRight=15;shape=trapezoid;perimeter=trapezoidPerimeter;fixedSize=1;" vertex="1" parent="1">
          <mxGeometry x="6993.110000000001" y="888.7500000000005" width="204.13" height="62.5" as="geometry" />
        </mxCell>
        <mxCell id="yNmEUhzYjuj3kyeLYS_d-26" style="edgeStyle=orthogonalEdgeStyle;rounded=0;orthogonalLoop=1;jettySize=auto;html=1;exitX=0.5;exitY=1;exitDx=0;exitDy=0;entryX=0.5;entryY=0;entryDx=0;entryDy=0;fontFamily=lexend light;fontSize=14;fontColor=default;" edge="1" parent="1" source="yNmEUhzYjuj3kyeLYS_d-79" target="yNmEUhzYjuj3kyeLYS_d-32">
          <mxGeometry relative="1" as="geometry">
            <mxPoint x="7147.685" y="1296.6400000000003" as="targetPoint" />
          </mxGeometry>
        </mxCell>
        <mxCell id="yNmEUhzYjuj3kyeLYS_d-27" value="FALSE" style="edgeLabel;html=1;align=center;verticalAlign=middle;resizable=0;points=[];strokeColor=default;spacingLeft=15;spacingRight=15;spacingBottom=0;fontFamily=lexend light;fontSize=14;fontColor=default;fillColor=default;" vertex="1" connectable="0" parent="yNmEUhzYjuj3kyeLYS_d-26">
          <mxGeometry x="-0.2966" y="-2" relative="1" as="geometry">
            <mxPoint as="offset" />
          </mxGeometry>
        </mxCell>
        <mxCell id="yNmEUhzYjuj3kyeLYS_d-28" style="edgeStyle=orthogonalEdgeStyle;rounded=0;orthogonalLoop=1;jettySize=auto;html=1;exitX=0;exitY=0.5;exitDx=0;exitDy=0;entryX=0.25;entryY=1;entryDx=0;entryDy=0;fontFamily=lexend light;fontSize=14;fontColor=default;" edge="1" parent="1" source="yNmEUhzYjuj3kyeLYS_d-29" target="yNmEUhzYjuj3kyeLYS_d-25">
          <mxGeometry relative="1" as="geometry" />
        </mxCell>
        <mxCell id="yNmEUhzYjuj3kyeLYS_d-29" value="Workout duration limit exceeded?" style="shape=hexagon;perimeter=hexagonPerimeter2;whiteSpace=wrap;html=1;fixedSize=1;size=15;fillColor=#008a00;fontColor=#ffffff;strokeColor=#005700;fontFamily=lexend light;fontSize=14;spacingBottom=0;spacingLeft=15;spacingRight=15;" vertex="1" parent="1">
          <mxGeometry x="7073.110000000001" y="1104.5000000000005" width="153.13" height="60" as="geometry" />
        </mxCell>
        <mxCell id="yNmEUhzYjuj3kyeLYS_d-30" style="edgeStyle=orthogonalEdgeStyle;rounded=0;orthogonalLoop=1;jettySize=auto;html=1;exitX=0.5;exitY=1;exitDx=0;exitDy=0;entryX=0.5;entryY=0;entryDx=0;entryDy=0;fontFamily=lexend light;fontSize=14;fontColor=default;" edge="1" parent="1" source="yNmEUhzYjuj3kyeLYS_d-31" target="yNmEUhzYjuj3kyeLYS_d-29">
          <mxGeometry relative="1" as="geometry" />
        </mxCell>
        <mxCell id="yNmEUhzYjuj3kyeLYS_d-31" value="Next exercise" style="whiteSpace=wrap;html=1;fontFamily=lexend light;fontSize=14;spacingBottom=0;spacingLeft=15;spacingRight=15;" vertex="1" parent="1">
          <mxGeometry x="7107.85" y="1014.5000000000005" width="83.66" height="60" as="geometry" />
        </mxCell>
        <mxCell id="yNmEUhzYjuj3kyeLYS_d-32" value="Return candidate" style="ellipse;whiteSpace=wrap;html=1;rounded=0;fillColor=#a20025;fontColor=#ffffff;strokeColor=#6F0000;fontFamily=lexend light;fontSize=14;spacingBottom=0;spacingLeft=15;spacingRight=15;" vertex="1" parent="1">
          <mxGeometry x="7106.32" y="1385.6600000000003" width="80" height="80" as="geometry" />
        </mxCell>
        <mxCell id="yNmEUhzYjuj3kyeLYS_d-33" style="edgeStyle=orthogonalEdgeStyle;rounded=0;orthogonalLoop=1;jettySize=auto;html=1;exitX=1;exitY=0.5;exitDx=0;exitDy=0;entryX=0;entryY=0.5;entryDx=0;entryDy=0;fontFamily=lexend light;fontSize=14;fontColor=default;" edge="1" parent="1" source="yNmEUhzYjuj3kyeLYS_d-34" target="yNmEUhzYjuj3kyeLYS_d-25">
          <mxGeometry relative="1" as="geometry" />
        </mxCell>
        <mxCell id="yNmEUhzYjuj3kyeLYS_d-34" value="Find &lt;b&gt;aerobic &lt;/b&gt;exercise candidate" style="whiteSpace=wrap;html=1;fontFamily=lexend light;fontSize=14;spacingBottom=0;spacingLeft=15;spacingRight=15;fillColor=#0050ef;fontColor=#ffffff;strokeColor=#001DBC;shape=parallelogram;fixedSize=1;size=18.050000000000182;perimeter=parallelogramPerimeter;" vertex="1" parent="1">
          <mxGeometry x="6798.11" y="888.7500000000005" width="170" height="62.5" as="geometry" />
        </mxCell>
        <mxCell id="yNmEUhzYjuj3kyeLYS_d-35" style="edgeStyle=orthogonalEdgeStyle;rounded=0;orthogonalLoop=1;jettySize=auto;html=1;exitX=0.75;exitY=1;exitDx=0;exitDy=0;entryX=0.25;entryY=0;entryDx=0;entryDy=0;fontFamily=lexend light;fontSize=14;fontColor=default;" edge="1" parent="1" source="yNmEUhzYjuj3kyeLYS_d-39" target="yNmEUhzYjuj3kyeLYS_d-7">
          <mxGeometry relative="1" as="geometry" />
        </mxCell>
        <mxCell id="yNmEUhzYjuj3kyeLYS_d-36" value="TRUE" style="edgeLabel;html=1;align=center;verticalAlign=middle;resizable=0;points=[];strokeColor=default;spacingLeft=15;spacingRight=15;spacingBottom=0;fontFamily=lexend light;fontSize=14;fontColor=default;fillColor=default;" vertex="1" connectable="0" parent="yNmEUhzYjuj3kyeLYS_d-35">
          <mxGeometry x="-0.3277" relative="1" as="geometry">
            <mxPoint y="4" as="offset" />
          </mxGeometry>
        </mxCell>
        <mxCell id="yNmEUhzYjuj3kyeLYS_d-37" style="edgeStyle=orthogonalEdgeStyle;rounded=0;orthogonalLoop=1;jettySize=auto;html=1;exitX=1;exitY=0.5;exitDx=0;exitDy=0;entryX=0;entryY=0.5;entryDx=0;entryDy=0;fontFamily=lexend light;fontSize=14;fontColor=default;" edge="1" parent="1" source="yNmEUhzYjuj3kyeLYS_d-39" target="yNmEUhzYjuj3kyeLYS_d-40">
          <mxGeometry relative="1" as="geometry" />
        </mxCell>
        <mxCell id="yNmEUhzYjuj3kyeLYS_d-38" value="FALSE" style="edgeLabel;html=1;align=center;verticalAlign=middle;resizable=0;points=[];strokeColor=default;spacingLeft=15;spacingRight=15;spacingBottom=0;fontFamily=lexend light;fontSize=14;fontColor=default;fillColor=default;" vertex="1" connectable="0" parent="yNmEUhzYjuj3kyeLYS_d-37">
          <mxGeometry x="-0.3766" y="2" relative="1" as="geometry">
            <mxPoint x="5" y="2" as="offset" />
          </mxGeometry>
        </mxCell>
        <mxCell id="yNmEUhzYjuj3kyeLYS_d-39" value="DO WHILE&lt;div&gt;exercises are added&lt;/div&gt;" style="whiteSpace=wrap;html=1;fontFamily=lexend light;fontSize=14;spacingBottom=0;spacingLeft=15;spacingRight=15;shape=trapezoid;perimeter=trapezoidPerimeter;fixedSize=1;" vertex="1" parent="1">
          <mxGeometry x="6134.579999999999" y="819.0799999999999" width="218.25" height="70" as="geometry" />
        </mxCell>
        <mxCell id="yNmEUhzYjuj3kyeLYS_d-40" value="Return" style="ellipse;whiteSpace=wrap;html=1;rounded=0;fillColor=#a20025;fontColor=#ffffff;strokeColor=#6F0000;fontFamily=lexend light;fontSize=14;spacingBottom=0;spacingLeft=15;spacingRight=15;" vertex="1" parent="1">
          <mxGeometry x="6429.759999999999" y="814.0799999999999" width="80" height="80" as="geometry" />
        </mxCell>
        <mxCell id="yNmEUhzYjuj3kyeLYS_d-41" style="edgeStyle=orthogonalEdgeStyle;rounded=0;orthogonalLoop=1;jettySize=auto;html=1;exitX=1;exitY=0.5;exitDx=0;exitDy=0;entryX=0;entryY=0.5;entryDx=0;entryDy=0;fontFamily=lexend light;fontSize=14;fontColor=default;" edge="1" parent="1" source="yNmEUhzYjuj3kyeLYS_d-42" target="yNmEUhzYjuj3kyeLYS_d-56">
          <mxGeometry relative="1" as="geometry" />
        </mxCell>
        <mxCell id="yNmEUhzYjuj3kyeLYS_d-42" value="Get aerobic training days" style="whiteSpace=wrap;html=1;fontFamily=lexend light;fontSize=14;fillColor=#0050ef;fontColor=#ffffff;strokeColor=#001DBC;shape=parallelogram;fixedSize=1;size=17.5;strokeWidth=1;spacingBottom=0;spacingLeft=15;spacingRight=15;perimeter=parallelogramPerimeter;" vertex="1" parent="1">
          <mxGeometry x="4380" y="1168.4899999999998" width="140" height="70" as="geometry" />
        </mxCell>
        <mxCell id="yNmEUhzYjuj3kyeLYS_d-43" style="edgeStyle=orthogonalEdgeStyle;rounded=0;orthogonalLoop=1;jettySize=auto;html=1;entryX=0.5;entryY=0;entryDx=0;entryDy=0;fontFamily=lexend light;fontSize=14;fontColor=#ffffff;" edge="1" parent="1" source="yNmEUhzYjuj3kyeLYS_d-44" target="yNmEUhzYjuj3kyeLYS_d-48">
          <mxGeometry relative="1" as="geometry" />
        </mxCell>
        <mxCell id="yNmEUhzYjuj3kyeLYS_d-44" value="Next day" style="whiteSpace=wrap;html=1;fontFamily=lexend light;fontSize=14;spacingBottom=0;spacingLeft=15;spacingRight=15;" vertex="1" parent="1">
          <mxGeometry x="4682.7" y="1288.6799999999998" width="63.25" height="55" as="geometry" />
        </mxCell>
        <mxCell id="yNmEUhzYjuj3kyeLYS_d-45" style="edgeStyle=orthogonalEdgeStyle;rounded=0;orthogonalLoop=1;jettySize=auto;html=1;entryX=0.5;entryY=0;entryDx=0;entryDy=0;fontFamily=lexend light;fontSize=14;fontColor=#ffffff;" edge="1" parent="1" source="yNmEUhzYjuj3kyeLYS_d-72" target="yNmEUhzYjuj3kyeLYS_d-50">
          <mxGeometry relative="1" as="geometry" />
        </mxCell>
        <mxCell id="yNmEUhzYjuj3kyeLYS_d-46" value="FALSE" style="edgeLabel;html=1;align=center;verticalAlign=middle;resizable=0;points=[];strokeColor=default;spacingLeft=15;spacingRight=15;spacingBottom=0;fontFamily=lexend light;fontSize=14;fontColor=default;fillColor=default;" vertex="1" connectable="0" parent="yNmEUhzYjuj3kyeLYS_d-45">
          <mxGeometry x="-0.111" y="-1" relative="1" as="geometry">
            <mxPoint y="1" as="offset" />
          </mxGeometry>
        </mxCell>
        <mxCell id="yNmEUhzYjuj3kyeLYS_d-47" style="edgeStyle=orthogonalEdgeStyle;rounded=0;orthogonalLoop=1;jettySize=auto;html=1;exitX=0;exitY=0.5;exitDx=0;exitDy=0;entryX=0.25;entryY=1;entryDx=0;entryDy=0;fontFamily=lexend light;fontSize=14;fontColor=default;" edge="1" parent="1" source="yNmEUhzYjuj3kyeLYS_d-48" target="yNmEUhzYjuj3kyeLYS_d-56">
          <mxGeometry relative="1" as="geometry" />
        </mxCell>
        <mxCell id="yNmEUhzYjuj3kyeLYS_d-48" value="Is also a resistance training day?" style="shape=hexagon;perimeter=hexagonPerimeter2;whiteSpace=wrap;html=1;fixedSize=1;size=14;fillColor=#008a00;fontColor=#ffffff;strokeColor=#005700;fontFamily=lexend light;fontSize=14;spacingBottom=0;spacingLeft=15;spacingRight=15;" vertex="1" parent="1">
          <mxGeometry x="4642.02" y="1372.4299999999998" width="144.61" height="52.5" as="geometry" />
        </mxCell>
        <mxCell id="yNmEUhzYjuj3kyeLYS_d-49" style="edgeStyle=orthogonalEdgeStyle;rounded=0;orthogonalLoop=1;jettySize=auto;html=1;exitX=0;exitY=0.5;exitDx=0;exitDy=0;entryX=0.25;entryY=1;entryDx=0;entryDy=0;fontFamily=lexend light;fontSize=14;fontColor=default;" edge="1" parent="1" source="yNmEUhzYjuj3kyeLYS_d-50" target="yNmEUhzYjuj3kyeLYS_d-56">
          <mxGeometry relative="1" as="geometry" />
        </mxCell>
        <mxCell id="yNmEUhzYjuj3kyeLYS_d-50" value="Add day" style="whiteSpace=wrap;html=1;fontFamily=lexend light;fontSize=14;spacingBottom=0;spacingLeft=15;spacingRight=15;" vertex="1" parent="1">
          <mxGeometry x="4664" y="1555.6499999999996" width="96" height="42.5" as="geometry" />
        </mxCell>
        <mxCell id="yNmEUhzYjuj3kyeLYS_d-51" value="Return" style="ellipse;whiteSpace=wrap;html=1;rounded=0;fillColor=#a20025;fontColor=#ffffff;strokeColor=#6F0000;fontFamily=lexend light;fontSize=14;spacingBottom=0;spacingLeft=15;spacingRight=15;" vertex="1" parent="1">
          <mxGeometry x="5066.63" y="1163.4899999999998" width="80" height="80" as="geometry" />
        </mxCell>
        <mxCell id="yNmEUhzYjuj3kyeLYS_d-52" style="edgeStyle=orthogonalEdgeStyle;rounded=0;orthogonalLoop=1;jettySize=auto;html=1;exitX=1;exitY=0.5;exitDx=0;exitDy=0;entryX=0;entryY=0.5;entryDx=0;entryDy=0;" edge="1" parent="1" source="yNmEUhzYjuj3kyeLYS_d-56" target="yNmEUhzYjuj3kyeLYS_d-68">
          <mxGeometry relative="1" as="geometry" />
        </mxCell>
        <mxCell id="yNmEUhzYjuj3kyeLYS_d-53" value="END" style="edgeLabel;html=1;align=center;verticalAlign=middle;resizable=0;points=[];strokeColor=default;spacingLeft=15;spacingRight=15;spacingBottom=0;fontFamily=lexend light;fontSize=14;fontColor=default;fillColor=default;" vertex="1" connectable="0" parent="yNmEUhzYjuj3kyeLYS_d-52">
          <mxGeometry x="-0.7233" relative="1" as="geometry">
            <mxPoint x="18" as="offset" />
          </mxGeometry>
        </mxCell>
        <mxCell id="yNmEUhzYjuj3kyeLYS_d-54" style="edgeStyle=orthogonalEdgeStyle;rounded=0;orthogonalLoop=1;jettySize=auto;html=1;exitX=0.75;exitY=1;exitDx=0;exitDy=0;entryX=0.5;entryY=0;entryDx=0;entryDy=0;fontFamily=lexend light;fontSize=14;fontColor=default;" edge="1" parent="1" source="yNmEUhzYjuj3kyeLYS_d-56" target="yNmEUhzYjuj3kyeLYS_d-44">
          <mxGeometry relative="1" as="geometry" />
        </mxCell>
        <mxCell id="yNmEUhzYjuj3kyeLYS_d-55" value="START" style="edgeLabel;html=1;align=center;verticalAlign=middle;resizable=0;points=[];strokeColor=default;spacingLeft=15;spacingRight=15;spacingBottom=0;fontFamily=lexend light;fontSize=14;fontColor=default;fillColor=default;" vertex="1" connectable="0" parent="yNmEUhzYjuj3kyeLYS_d-54">
          <mxGeometry x="-0.2888" y="-1" relative="1" as="geometry">
            <mxPoint as="offset" />
          </mxGeometry>
        </mxCell>
        <mxCell id="yNmEUhzYjuj3kyeLYS_d-56" value="FOR EACH&lt;div&gt;workout day&lt;/div&gt;" style="whiteSpace=wrap;html=1;fontFamily=lexend light;fontSize=14;spacingBottom=0;spacingLeft=15;spacingRight=15;shape=trapezoid;perimeter=trapezoidPerimeter;fixedSize=1;" vertex="1" parent="1">
          <mxGeometry x="4558.25" y="1168.4899999999998" width="206.75" height="70" as="geometry" />
        </mxCell>
        <mxCell id="yNmEUhzYjuj3kyeLYS_d-57" style="edgeStyle=orthogonalEdgeStyle;rounded=0;orthogonalLoop=1;jettySize=auto;html=1;exitX=0.5;exitY=1;exitDx=0;exitDy=0;entryX=0.5;entryY=0;entryDx=0;entryDy=0;fontFamily=lexend light;fontSize=14;fontColor=default;" edge="1" parent="1" source="yNmEUhzYjuj3kyeLYS_d-58" target="yNmEUhzYjuj3kyeLYS_d-61">
          <mxGeometry relative="1" as="geometry" />
        </mxCell>
        <mxCell id="yNmEUhzYjuj3kyeLYS_d-58" value="Next day" style="whiteSpace=wrap;html=1;fontFamily=lexend light;fontSize=14;spacingBottom=0;spacingLeft=15;spacingRight=15;" vertex="1" parent="1">
          <mxGeometry x="4941.08" y="1288.6799999999998" width="63.25" height="55" as="geometry" />
        </mxCell>
        <mxCell id="yNmEUhzYjuj3kyeLYS_d-59" style="edgeStyle=orthogonalEdgeStyle;rounded=0;orthogonalLoop=1;jettySize=auto;html=1;exitX=0.5;exitY=1;exitDx=0;exitDy=0;entryX=0.5;entryY=0;entryDx=0;entryDy=0;fontFamily=lexend light;fontSize=14;fontColor=default;" edge="1" parent="1" source="yNmEUhzYjuj3kyeLYS_d-61" target="yNmEUhzYjuj3kyeLYS_d-63">
          <mxGeometry relative="1" as="geometry" />
        </mxCell>
        <mxCell id="yNmEUhzYjuj3kyeLYS_d-60" value="FALSE" style="edgeLabel;html=1;align=center;verticalAlign=middle;resizable=0;points=[];strokeColor=default;spacingLeft=15;spacingRight=15;spacingBottom=0;fontFamily=lexend light;fontSize=14;fontColor=default;fillColor=default;" vertex="1" connectable="0" parent="yNmEUhzYjuj3kyeLYS_d-59">
          <mxGeometry x="-0.5059" y="-1" relative="1" as="geometry">
            <mxPoint x="2" y="6" as="offset" />
          </mxGeometry>
        </mxCell>
        <mxCell id="yNmEUhzYjuj3kyeLYS_d-61" value="Weekly aerobic workout max exceeded?" style="shape=hexagon;perimeter=hexagonPerimeter2;whiteSpace=wrap;html=1;fixedSize=1;size=14;fillColor=#008a00;fontColor=#ffffff;strokeColor=#005700;fontFamily=lexend light;fontSize=14;spacingBottom=0;spacingLeft=15;spacingRight=15;" vertex="1" parent="1">
          <mxGeometry x="4878.780000000001" y="1365.6499999999996" width="187.85" height="52.5" as="geometry" />
        </mxCell>
        <mxCell id="yNmEUhzYjuj3kyeLYS_d-62" style="edgeStyle=orthogonalEdgeStyle;rounded=0;orthogonalLoop=1;jettySize=auto;html=1;exitX=0;exitY=0.5;exitDx=0;exitDy=0;entryX=0.25;entryY=1;entryDx=0;entryDy=0;fontFamily=lexend light;fontSize=14;fontColor=default;" edge="1" parent="1" source="yNmEUhzYjuj3kyeLYS_d-63" target="yNmEUhzYjuj3kyeLYS_d-68">
          <mxGeometry relative="1" as="geometry" />
        </mxCell>
        <mxCell id="yNmEUhzYjuj3kyeLYS_d-63" value="Add day" style="whiteSpace=wrap;html=1;fontFamily=lexend light;fontSize=14;spacingBottom=0;spacingLeft=15;spacingRight=15;" vertex="1" parent="1">
          <mxGeometry x="4924.710000000001" y="1465.81" width="96" height="42.5" as="geometry" />
        </mxCell>
        <mxCell id="yNmEUhzYjuj3kyeLYS_d-64" style="edgeStyle=orthogonalEdgeStyle;rounded=0;orthogonalLoop=1;jettySize=auto;html=1;exitX=1;exitY=0.5;exitDx=0;exitDy=0;entryX=0;entryY=0.5;entryDx=0;entryDy=0;fontFamily=lexend light;fontSize=14;fontColor=default;" edge="1" parent="1" source="yNmEUhzYjuj3kyeLYS_d-68" target="yNmEUhzYjuj3kyeLYS_d-51">
          <mxGeometry relative="1" as="geometry" />
        </mxCell>
        <mxCell id="yNmEUhzYjuj3kyeLYS_d-65" value="END" style="edgeLabel;html=1;align=center;verticalAlign=middle;resizable=0;points=[];strokeColor=default;spacingLeft=15;spacingRight=15;spacingBottom=0;fontFamily=lexend light;fontSize=14;fontColor=default;fillColor=default;" vertex="1" connectable="0" parent="yNmEUhzYjuj3kyeLYS_d-64">
          <mxGeometry x="-0.5223" y="3" relative="1" as="geometry">
            <mxPoint x="10" y="3" as="offset" />
          </mxGeometry>
        </mxCell>
        <mxCell id="yNmEUhzYjuj3kyeLYS_d-66" style="edgeStyle=orthogonalEdgeStyle;rounded=0;orthogonalLoop=1;jettySize=auto;html=1;exitX=0.75;exitY=1;exitDx=0;exitDy=0;entryX=0.5;entryY=0;entryDx=0;entryDy=0;fontFamily=lexend light;fontSize=14;fontColor=default;" edge="1" parent="1" source="yNmEUhzYjuj3kyeLYS_d-68" target="yNmEUhzYjuj3kyeLYS_d-58">
          <mxGeometry relative="1" as="geometry" />
        </mxCell>
        <mxCell id="yNmEUhzYjuj3kyeLYS_d-67" value="START" style="edgeLabel;html=1;align=center;verticalAlign=middle;resizable=0;points=[];strokeColor=default;spacingLeft=15;spacingRight=15;spacingBottom=0;fontFamily=lexend light;fontSize=14;fontColor=default;fillColor=default;" vertex="1" connectable="0" parent="yNmEUhzYjuj3kyeLYS_d-66">
          <mxGeometry x="-0.4468" y="-1" relative="1" as="geometry">
            <mxPoint as="offset" />
          </mxGeometry>
        </mxCell>
        <mxCell id="yNmEUhzYjuj3kyeLYS_d-68" value="FOR EACH&lt;div&gt;workout day&lt;/div&gt;" style="whiteSpace=wrap;html=1;fontFamily=lexend light;fontSize=14;spacingBottom=0;spacingLeft=15;spacingRight=15;shape=trapezoid;perimeter=trapezoidPerimeter;fixedSize=1;" vertex="1" parent="1">
          <mxGeometry x="4816.63" y="1171.3999999999996" width="206.75" height="67.09" as="geometry" />
        </mxCell>
        <mxCell id="yNmEUhzYjuj3kyeLYS_d-69" value="" style="edgeStyle=orthogonalEdgeStyle;rounded=0;orthogonalLoop=1;jettySize=auto;html=1;entryX=0.5;entryY=0;entryDx=0;entryDy=0;fontFamily=lexend light;fontSize=14;fontColor=#ffffff;" edge="1" parent="1" source="yNmEUhzYjuj3kyeLYS_d-48" target="yNmEUhzYjuj3kyeLYS_d-72">
          <mxGeometry relative="1" as="geometry">
            <mxPoint x="4714.63" y="1424.6499999999996" as="sourcePoint" />
            <mxPoint x="4714.63" y="1518.6499999999996" as="targetPoint" />
          </mxGeometry>
        </mxCell>
        <mxCell id="yNmEUhzYjuj3kyeLYS_d-70" value="FALSE" style="edgeLabel;html=1;align=center;verticalAlign=middle;resizable=0;points=[];strokeColor=default;spacingLeft=15;spacingRight=15;spacingBottom=0;fontFamily=lexend light;fontSize=14;fontColor=default;fillColor=default;" vertex="1" connectable="0" parent="yNmEUhzYjuj3kyeLYS_d-69">
          <mxGeometry x="-0.6094" y="-3" relative="1" as="geometry">
            <mxPoint x="4" y="9" as="offset" />
          </mxGeometry>
        </mxCell>
        <mxCell id="yNmEUhzYjuj3kyeLYS_d-71" style="edgeStyle=orthogonalEdgeStyle;rounded=0;orthogonalLoop=1;jettySize=auto;html=1;exitX=0;exitY=0.5;exitDx=0;exitDy=0;entryX=0.25;entryY=1;entryDx=0;entryDy=0;fontFamily=lexend light;fontSize=14;fontColor=default;" edge="1" parent="1" source="yNmEUhzYjuj3kyeLYS_d-72" target="yNmEUhzYjuj3kyeLYS_d-56">
          <mxGeometry relative="1" as="geometry" />
        </mxCell>
        <mxCell id="yNmEUhzYjuj3kyeLYS_d-72" value="Weekly aerobic workout max exceeded?" style="shape=hexagon;perimeter=hexagonPerimeter2;whiteSpace=wrap;html=1;fixedSize=1;size=14;fillColor=#008a00;fontColor=#ffffff;strokeColor=#005700;fontFamily=lexend light;fontSize=14;spacingBottom=0;spacingLeft=15;spacingRight=15;" vertex="1" parent="1">
          <mxGeometry x="4628.51" y="1465.81" width="173.65" height="52.5" as="geometry" />
        </mxCell>
        <mxCell id="yNmEUhzYjuj3kyeLYS_d-73" value="First, we try to insert aerobic days on&amp;nbsp;&lt;div&gt;days that are not also resistance days.&lt;/div&gt;&lt;div&gt;This is &lt;span style=&quot;background-color: initial;&quot;&gt;to help spread out activity&lt;/span&gt;&lt;/div&gt;&lt;div&gt;&lt;span style=&quot;background-color: initial;&quot;&gt;throughout the week.&amp;nbsp;&lt;/span&gt;&lt;/div&gt;" style="text;html=1;align=center;verticalAlign=middle;resizable=0;points=[];autosize=1;strokeColor=none;fillColor=none;fontFamily=lexend light;fontSize=14;fontColor=default;" vertex="1" parent="1">
          <mxGeometry x="4520" y="1079.7399999999998" width="240" height="80" as="geometry" />
        </mxCell>
        <mxCell id="yNmEUhzYjuj3kyeLYS_d-74" value="After this first round, we add in as&amp;nbsp;&lt;div&gt;many additional aerobic days as possible&lt;/div&gt;&lt;div&gt;without taking into account whether the&lt;/div&gt;&lt;div&gt;day is also a resistance day.&lt;/div&gt;" style="text;html=1;align=center;verticalAlign=middle;resizable=0;points=[];autosize=1;strokeColor=none;fillColor=none;fontFamily=lexend light;fontSize=14;fontColor=default;" vertex="1" parent="1">
          <mxGeometry x="4795.01" y="1083.4899999999996" width="250" height="80" as="geometry" />
        </mxCell>
        <mxCell id="yNmEUhzYjuj3kyeLYS_d-75" value="TIP: One of the &quot;workout rules&quot;&lt;div&gt;variables I&#39;ve created relate to&lt;/div&gt;&lt;div&gt;how long to rest between&lt;/div&gt;&lt;div&gt;sets when doing&lt;/div&gt;&lt;div&gt;aerobic exercises (called the&lt;/div&gt;&lt;div&gt;&quot;work-to-rest ratio&quot;).&lt;/div&gt;" style="text;html=1;align=center;verticalAlign=middle;resizable=0;points=[];autosize=1;strokeColor=none;fillColor=none;fontFamily=lexend light;fontSize=14;fontColor=default;" vertex="1" parent="1">
          <mxGeometry x="6865.349999999999" y="1074.5" width="200" height="110" as="geometry" />
        </mxCell>
        <mxCell id="yNmEUhzYjuj3kyeLYS_d-76" value="Remember to start at a random index&lt;div&gt;when looking through exercises.&lt;/div&gt;&lt;div&gt;This ensures that there is an equal chance&lt;/div&gt;&lt;div&gt;for all exercises to be considered&lt;/div&gt;&lt;div&gt;instead of the the ones that come&lt;/div&gt;&lt;div&gt;first in the array of possible aerobic&lt;/div&gt;&lt;div&gt;exercises.&lt;/div&gt;" style="text;html=1;align=center;verticalAlign=middle;resizable=0;points=[];autosize=1;strokeColor=none;fillColor=none;fontFamily=lexend light;fontSize=14;fontColor=default;" vertex="1" parent="1">
          <mxGeometry x="6759.999999999999" y="750" width="260" height="130" as="geometry" />
        </mxCell>
        <mxCell id="yNmEUhzYjuj3kyeLYS_d-77" value="" style="edgeStyle=orthogonalEdgeStyle;rounded=0;orthogonalLoop=1;jettySize=auto;html=1;exitX=0.5;exitY=1;exitDx=0;exitDy=0;entryX=0.5;entryY=0;entryDx=0;entryDy=0;fontFamily=lexend light;fontSize=14;fontColor=default;" edge="1" parent="1" source="yNmEUhzYjuj3kyeLYS_d-90" target="yNmEUhzYjuj3kyeLYS_d-79">
          <mxGeometry relative="1" as="geometry">
            <mxPoint x="7149.92" y="1164.3200000000002" as="sourcePoint" />
            <mxPoint x="7150.92" y="1345.3200000000002" as="targetPoint" />
          </mxGeometry>
        </mxCell>
        <mxCell id="yNmEUhzYjuj3kyeLYS_d-78" style="edgeStyle=orthogonalEdgeStyle;rounded=0;orthogonalLoop=1;jettySize=auto;html=1;exitX=0;exitY=0.5;exitDx=0;exitDy=0;entryX=0.25;entryY=1;entryDx=0;entryDy=0;fontFamily=lexend light;fontSize=14;fontColor=default;" edge="1" parent="1" source="yNmEUhzYjuj3kyeLYS_d-79" target="yNmEUhzYjuj3kyeLYS_d-25">
          <mxGeometry relative="1" as="geometry" />
        </mxCell>
        <mxCell id="yNmEUhzYjuj3kyeLYS_d-79" value="Routine already includes the candidate?" style="shape=hexagon;perimeter=hexagonPerimeter2;whiteSpace=wrap;html=1;fixedSize=1;size=15;fillColor=#008a00;fontColor=#ffffff;strokeColor=#005700;fontFamily=lexend light;fontSize=14;spacingBottom=0;spacingLeft=15;spacingRight=15;" vertex="1" parent="1">
          <mxGeometry x="7069.76" y="1283.1600000000008" width="153.13" height="60" as="geometry" />
        </mxCell>
        <mxCell id="yNmEUhzYjuj3kyeLYS_d-80" value="TIP: Create an array of&amp;nbsp;&lt;div&gt;struct exercise called&lt;/div&gt;&lt;div&gt;routine_arobic_exercises&lt;/div&gt;&lt;div&gt;that keeps track of all aerobic&lt;/div&gt;&lt;div&gt;exercises that the routine includes.&lt;/div&gt;" style="text;html=1;align=center;verticalAlign=middle;resizable=0;points=[];autosize=1;strokeColor=none;fillColor=none;fontFamily=lexend light;fontSize=14;fontColor=default;" vertex="1" parent="1">
          <mxGeometry x="6865.349999999999" y="1198.85" width="220" height="100" as="geometry" />
        </mxCell>
        <mxCell id="yNmEUhzYjuj3kyeLYS_d-81" value="First, we want to try to find unique&amp;nbsp;&lt;div&gt;aerobic&amp;nbsp;&lt;span style=&quot;background-color: initial;&quot;&gt;exercises for each workout.&lt;/span&gt;&lt;/div&gt;" style="text;html=1;align=center;verticalAlign=middle;resizable=0;points=[];autosize=1;strokeColor=none;fillColor=none;fontFamily=lexend light;fontSize=14;fontColor=default;" vertex="1" parent="1">
          <mxGeometry x="7010.919999999999" y="838.75" width="220" height="50" as="geometry" />
        </mxCell>
        <mxCell id="yNmEUhzYjuj3kyeLYS_d-82" value="If we cannot find any unique exercises&lt;div&gt;we must settle for an already used one,&lt;/div&gt;&lt;div&gt;provided that there is a valid one to be found.&lt;/div&gt;" style="text;html=1;align=center;verticalAlign=middle;resizable=0;points=[];autosize=1;strokeColor=none;fillColor=none;fontFamily=lexend light;fontSize=14;fontColor=default;" vertex="1" parent="1">
          <mxGeometry x="7242.789999999999" y="802.8299999999999" width="320" height="60" as="geometry" />
        </mxCell>
        <mxCell id="yNmEUhzYjuj3kyeLYS_d-83" value="Return candidate" style="ellipse;whiteSpace=wrap;html=1;rounded=0;fillColor=#a20025;fontColor=#ffffff;strokeColor=#6F0000;fontFamily=lexend light;fontSize=14;spacingBottom=0;spacingLeft=15;spacingRight=15;" vertex="1" parent="1">
          <mxGeometry x="7279.36" y="979.9000000000005" width="80" height="80" as="geometry" />
        </mxCell>
        <mxCell id="yNmEUhzYjuj3kyeLYS_d-84" style="edgeStyle=orthogonalEdgeStyle;rounded=0;orthogonalLoop=1;jettySize=auto;html=1;exitX=0.5;exitY=1;exitDx=0;exitDy=0;entryX=0.5;entryY=0;entryDx=0;entryDy=0;fontFamily=lexend light;fontSize=14;fontColor=default;" edge="1" parent="1" source="yNmEUhzYjuj3kyeLYS_d-86" target="yNmEUhzYjuj3kyeLYS_d-83">
          <mxGeometry relative="1" as="geometry" />
        </mxCell>
        <mxCell id="yNmEUhzYjuj3kyeLYS_d-85" style="edgeStyle=orthogonalEdgeStyle;rounded=0;orthogonalLoop=1;jettySize=auto;html=1;exitX=1;exitY=0.5;exitDx=0;exitDy=0;entryX=0;entryY=0.5;entryDx=0;entryDy=0;fontFamily=lexend light;fontSize=14;fontColor=default;" edge="1" parent="1" source="yNmEUhzYjuj3kyeLYS_d-86" target="yNmEUhzYjuj3kyeLYS_d-91">
          <mxGeometry relative="1" as="geometry" />
        </mxCell>
        <mxCell id="yNmEUhzYjuj3kyeLYS_d-86" value="Have you been able to store a valid exercise?" style="shape=hexagon;perimeter=hexagonPerimeter2;whiteSpace=wrap;html=1;fixedSize=1;size=15;fillColor=#008a00;fontColor=#ffffff;strokeColor=#005700;fontFamily=lexend light;fontSize=14;spacingBottom=0;spacingLeft=15;spacingRight=15;" vertex="1" parent="1">
          <mxGeometry x="7242.790000000001" y="890.0000000000005" width="153.13" height="60" as="geometry" />
        </mxCell>
        <mxCell id="yNmEUhzYjuj3kyeLYS_d-87" value="" style="edgeStyle=orthogonalEdgeStyle;rounded=0;orthogonalLoop=1;jettySize=auto;html=1;exitX=0.5;exitY=1;exitDx=0;exitDy=0;entryX=0.5;entryY=0;entryDx=0;entryDy=0;fontFamily=lexend light;fontSize=14;fontColor=default;" edge="1" parent="1" source="yNmEUhzYjuj3kyeLYS_d-29" target="yNmEUhzYjuj3kyeLYS_d-90">
          <mxGeometry relative="1" as="geometry">
            <mxPoint x="7149.92" y="1164.3200000000002" as="sourcePoint" />
            <mxPoint x="7149.92" y="1304.3200000000002" as="targetPoint" />
          </mxGeometry>
        </mxCell>
        <mxCell id="yNmEUhzYjuj3kyeLYS_d-88" value="FALSE" style="edgeLabel;html=1;align=center;verticalAlign=middle;resizable=0;points=[];strokeColor=default;spacingLeft=15;spacingRight=15;spacingBottom=0;fontFamily=lexend light;fontSize=14;fontColor=default;fillColor=default;" vertex="1" connectable="0" parent="yNmEUhzYjuj3kyeLYS_d-87">
          <mxGeometry x="-0.2318" relative="1" as="geometry">
            <mxPoint y="60" as="offset" />
          </mxGeometry>
        </mxCell>
        <mxCell id="yNmEUhzYjuj3kyeLYS_d-89" value="FALSE" style="edgeLabel;html=1;align=center;verticalAlign=middle;resizable=0;points=[];strokeColor=default;spacingLeft=15;spacingRight=15;spacingBottom=0;fontFamily=lexend light;fontSize=14;fontColor=default;fillColor=default;" vertex="1" connectable="0" parent="yNmEUhzYjuj3kyeLYS_d-87">
          <mxGeometry x="0.1215" y="-1" relative="1" as="geometry">
            <mxPoint as="offset" />
          </mxGeometry>
        </mxCell>
        <mxCell id="yNmEUhzYjuj3kyeLYS_d-90" value="Store as the last checked valid exercise" style="whiteSpace=wrap;html=1;fontFamily=lexend light;fontSize=14;spacingBottom=0;spacingLeft=15;spacingRight=15;" vertex="1" parent="1">
          <mxGeometry x="7059.76" y="1198.8500000000004" width="176.16" height="60" as="geometry" />
        </mxCell>
        <mxCell id="yNmEUhzYjuj3kyeLYS_d-91" value="Return NULL" style="ellipse;whiteSpace=wrap;html=1;rounded=0;fillColor=#a20025;fontColor=#ffffff;strokeColor=#6F0000;fontFamily=lexend light;fontSize=14;spacingBottom=0;spacingLeft=15;spacingRight=15;" vertex="1" parent="1">
          <mxGeometry x="7425.92" y="880.0000000000005" width="80" height="80" as="geometry" />
        </mxCell>
        <mxCell id="yNmEUhzYjuj3kyeLYS_d-92" value="&lt;font style=&quot;font-size: 100px;&quot;&gt;LUNA&#39;S CORNER&lt;/font&gt;" style="text;html=1;align=center;verticalAlign=middle;resizable=0;points=[];autosize=1;strokeColor=none;fillColor=none;fontFamily=lexend light;fontSize=14;fontColor=#ffffff;" vertex="1" parent="1">
          <mxGeometry x="5580" y="350" width="820" height="130" as="geometry" />
        </mxCell>
        <mxCell id="yNmEUhzYjuj3kyeLYS_d-93" style="edgeStyle=orthogonalEdgeStyle;rounded=0;orthogonalLoop=1;jettySize=auto;html=1;exitX=1;exitY=0.5;exitDx=0;exitDy=0;entryX=0;entryY=0.5;entryDx=0;entryDy=0;fontFamily=lexend light;fontSize=14;fontColor=default;" edge="1" parent="1" source="yNmEUhzYjuj3kyeLYS_d-94" target="yNmEUhzYjuj3kyeLYS_d-115">
          <mxGeometry relative="1" as="geometry" />
        </mxCell>
        <mxCell id="yNmEUhzYjuj3kyeLYS_d-94" value="Add aerobic&amp;nbsp;&lt;div&gt;exercises&lt;/div&gt;" style="whiteSpace=wrap;html=1;shape=parallelogram;boundedLbl=1;backgroundOutline=1;size=15;fillColor=#0050ef;fontColor=#ffffff;strokeColor=#001DBC;fontFamily=lexend light;fontSize=14;fixedSize=1;perimeter=parallelogramPerimeter;" vertex="1" parent="1">
          <mxGeometry x="5329.999999999999" y="823.75" width="150" height="80" as="geometry" />
        </mxCell>
        <mxCell id="yNmEUhzYjuj3kyeLYS_d-95" style="edgeStyle=orthogonalEdgeStyle;rounded=0;orthogonalLoop=1;jettySize=auto;html=1;exitX=0.75;exitY=1;exitDx=0;exitDy=0;entryX=0.5;entryY=0;entryDx=0;entryDy=0;fontFamily=lexend light;fontSize=14;fontColor=default;" edge="1" parent="1" source="yNmEUhzYjuj3kyeLYS_d-99" target="yNmEUhzYjuj3kyeLYS_d-101">
          <mxGeometry relative="1" as="geometry" />
        </mxCell>
        <mxCell id="yNmEUhzYjuj3kyeLYS_d-96" value="START" style="edgeLabel;html=1;align=center;verticalAlign=middle;resizable=0;points=[];strokeColor=default;spacingLeft=15;spacingRight=15;spacingBottom=0;fontFamily=lexend light;fontSize=14;fontColor=default;fillColor=default;" vertex="1" connectable="0" parent="yNmEUhzYjuj3kyeLYS_d-95">
          <mxGeometry x="0.0026" y="2" relative="1" as="geometry">
            <mxPoint as="offset" />
          </mxGeometry>
        </mxCell>
        <mxCell id="yNmEUhzYjuj3kyeLYS_d-97" style="edgeStyle=orthogonalEdgeStyle;rounded=0;orthogonalLoop=1;jettySize=auto;html=1;exitX=0;exitY=0.5;exitDx=0;exitDy=0;entryX=0.25;entryY=1;entryDx=0;entryDy=0;fontFamily=lexend light;fontSize=14;fontColor=default;" edge="1" parent="1" source="yNmEUhzYjuj3kyeLYS_d-99" target="yNmEUhzYjuj3kyeLYS_d-115">
          <mxGeometry relative="1" as="geometry">
            <Array as="points">
              <mxPoint x="5563.999999999999" y="1072.6" />
            </Array>
          </mxGeometry>
        </mxCell>
        <mxCell id="yNmEUhzYjuj3kyeLYS_d-98" value="END" style="edgeLabel;html=1;align=center;verticalAlign=middle;resizable=0;points=[];strokeColor=#001DBC;spacingLeft=15;spacingRight=15;spacingBottom=0;fontFamily=lexend light;fontSize=14;fontColor=#ffffff;fillColor=#0050ef;" vertex="1" connectable="0" parent="yNmEUhzYjuj3kyeLYS_d-97">
          <mxGeometry x="-0.6849" y="-2" relative="1" as="geometry">
            <mxPoint as="offset" />
          </mxGeometry>
        </mxCell>
        <mxCell id="yNmEUhzYjuj3kyeLYS_d-99" value="Loop x times&lt;div&gt;(x = max amount of aerobic exercises per day)&lt;/div&gt;" style="whiteSpace=wrap;html=1;fontFamily=lexend light;fontSize=14;spacingBottom=0;spacingLeft=15;spacingRight=15;shape=trapezoid;perimeter=trapezoidPerimeter;fixedSize=1;" vertex="1" parent="1">
          <mxGeometry x="5619.24" y="1037.21" width="230.76" height="75.62" as="geometry" />
        </mxCell>
        <mxCell id="yNmEUhzYjuj3kyeLYS_d-100" value="" style="edgeStyle=orthogonalEdgeStyle;rounded=0;orthogonalLoop=1;jettySize=auto;html=1;fontFamily=lexend light;fontSize=14;fontColor=#ffffff;entryX=0.5;entryY=0;entryDx=0;entryDy=0;" edge="1" parent="1" source="yNmEUhzYjuj3kyeLYS_d-101" target="yNmEUhzYjuj3kyeLYS_d-107">
          <mxGeometry relative="1" as="geometry">
            <mxPoint x="5791.9" y="1258.0299999999997" as="targetPoint" />
          </mxGeometry>
        </mxCell>
        <mxCell id="yNmEUhzYjuj3kyeLYS_d-101" value="Next loop" style="whiteSpace=wrap;html=1;fontFamily=lexend light;fontSize=14;spacingBottom=0;spacingLeft=15;spacingRight=15;" vertex="1" parent="1">
          <mxGeometry x="5743.69" y="1175.58" width="96.31" height="47" as="geometry" />
        </mxCell>
        <mxCell id="yNmEUhzYjuj3kyeLYS_d-102" style="edgeStyle=orthogonalEdgeStyle;rounded=0;orthogonalLoop=1;jettySize=auto;html=1;exitX=0.5;exitY=1;exitDx=0;exitDy=0;entryX=0.5;entryY=0;entryDx=0;entryDy=0;fontFamily=lexend light;fontSize=14;fontColor=default;" edge="1" parent="1" source="yNmEUhzYjuj3kyeLYS_d-105" target="yNmEUhzYjuj3kyeLYS_d-109">
          <mxGeometry relative="1" as="geometry">
            <mxPoint x="5783.009999999999" y="1547.29" as="targetPoint" />
          </mxGeometry>
        </mxCell>
        <mxCell id="yNmEUhzYjuj3kyeLYS_d-103" value="TRUE" style="edgeLabel;html=1;align=center;verticalAlign=middle;resizable=0;points=[];strokeColor=default;spacingLeft=15;spacingRight=15;spacingBottom=0;fontFamily=lexend light;fontSize=14;fontColor=default;fillColor=default;" vertex="1" connectable="0" parent="yNmEUhzYjuj3kyeLYS_d-102">
          <mxGeometry x="-0.288" y="1" relative="1" as="geometry">
            <mxPoint as="offset" />
          </mxGeometry>
        </mxCell>
        <mxCell id="yNmEUhzYjuj3kyeLYS_d-104" style="edgeStyle=orthogonalEdgeStyle;rounded=0;orthogonalLoop=1;jettySize=auto;html=1;exitX=0;exitY=0.5;exitDx=0;exitDy=0;entryX=0.25;entryY=1;entryDx=0;entryDy=0;fontFamily=lexend light;fontSize=14;fontColor=default;" edge="1" parent="1" source="yNmEUhzYjuj3kyeLYS_d-105" target="yNmEUhzYjuj3kyeLYS_d-99">
          <mxGeometry relative="1" as="geometry" />
        </mxCell>
        <mxCell id="yNmEUhzYjuj3kyeLYS_d-105" value="Candidate found?" style="shape=hexagon;perimeter=hexagonPerimeter2;whiteSpace=wrap;html=1;fixedSize=1;size=15;fillColor=#008a00;fontColor=#ffffff;strokeColor=#005700;fontFamily=lexend light;fontSize=14;spacingBottom=0;spacingLeft=15;spacingRight=15;" vertex="1" parent="1">
          <mxGeometry x="5715.280000000001" y="1347.5300000000002" width="153.13" height="60" as="geometry" />
        </mxCell>
        <mxCell id="yNmEUhzYjuj3kyeLYS_d-106" style="edgeStyle=orthogonalEdgeStyle;rounded=0;orthogonalLoop=1;jettySize=auto;html=1;exitX=0.5;exitY=1;exitDx=0;exitDy=0;entryX=0.5;entryY=0;entryDx=0;entryDy=0;fontFamily=lexend light;fontSize=14;fontColor=default;" edge="1" parent="1" source="yNmEUhzYjuj3kyeLYS_d-107" target="yNmEUhzYjuj3kyeLYS_d-105">
          <mxGeometry relative="1" as="geometry" />
        </mxCell>
        <mxCell id="yNmEUhzYjuj3kyeLYS_d-107" value="Find &lt;b&gt;aerobic &lt;/b&gt;exercise candidate" style="whiteSpace=wrap;html=1;fontFamily=lexend light;fontSize=14;spacingBottom=0;spacingLeft=15;spacingRight=15;shape=parallelogram;perimeter=parallelogramPerimeter;fixedSize=1;fillColor=#d80073;fontColor=#ffffff;strokeColor=#A50040;" vertex="1" parent="1">
          <mxGeometry x="5704.860000000001" y="1264.08" width="173.97" height="62.5" as="geometry" />
        </mxCell>
        <mxCell id="yNmEUhzYjuj3kyeLYS_d-108" style="edgeStyle=orthogonalEdgeStyle;rounded=0;orthogonalLoop=1;jettySize=auto;html=1;exitX=0;exitY=0.5;exitDx=0;exitDy=0;entryX=0.25;entryY=1;entryDx=0;entryDy=0;" edge="1" parent="1" source="yNmEUhzYjuj3kyeLYS_d-109" target="yNmEUhzYjuj3kyeLYS_d-99">
          <mxGeometry relative="1" as="geometry" />
        </mxCell>
        <mxCell id="yNmEUhzYjuj3kyeLYS_d-109" value="Add exercise" style="whiteSpace=wrap;html=1;fontFamily=lexend light;fontSize=14;spacingBottom=0;spacingLeft=15;spacingRight=15;" vertex="1" parent="1">
          <mxGeometry x="5751.839999999999" y="1453.31" width="80" height="55" as="geometry" />
        </mxCell>
        <mxCell id="yNmEUhzYjuj3kyeLYS_d-110" style="edgeStyle=orthogonalEdgeStyle;rounded=0;orthogonalLoop=1;jettySize=auto;html=1;exitX=1;exitY=0.5;exitDx=0;exitDy=0;entryX=0;entryY=0.5;entryDx=0;entryDy=0;fontFamily=lexend light;fontSize=14;fontColor=default;" edge="1" parent="1" source="yNmEUhzYjuj3kyeLYS_d-115" target="yNmEUhzYjuj3kyeLYS_d-116">
          <mxGeometry relative="1" as="geometry" />
        </mxCell>
        <mxCell id="yNmEUhzYjuj3kyeLYS_d-111" value="" style="edgeLabel;html=1;align=center;verticalAlign=middle;resizable=0;points=[];strokeColor=default;spacingLeft=15;spacingRight=15;spacingBottom=0;fontFamily=lexend light;fontSize=14;fontColor=default;fillColor=default;" vertex="1" connectable="0" parent="yNmEUhzYjuj3kyeLYS_d-110">
          <mxGeometry x="-0.3766" y="2" relative="1" as="geometry">
            <mxPoint x="5" y="2" as="offset" />
          </mxGeometry>
        </mxCell>
        <mxCell id="yNmEUhzYjuj3kyeLYS_d-112" value="END" style="edgeLabel;html=1;align=center;verticalAlign=middle;resizable=0;points=[];strokeColor=#001DBC;spacingLeft=15;spacingRight=15;spacingBottom=0;fontFamily=lexend light;fontSize=14;fontColor=#ffffff;fillColor=#0050ef;" vertex="1" connectable="0" parent="yNmEUhzYjuj3kyeLYS_d-110">
          <mxGeometry x="-0.3477" relative="1" as="geometry">
            <mxPoint as="offset" />
          </mxGeometry>
        </mxCell>
        <mxCell id="yNmEUhzYjuj3kyeLYS_d-113" style="edgeStyle=orthogonalEdgeStyle;rounded=0;orthogonalLoop=1;jettySize=auto;html=1;exitX=0.75;exitY=1;exitDx=0;exitDy=0;entryX=0.5;entryY=0;entryDx=0;entryDy=0;fontFamily=lexend light;fontSize=14;fontColor=#ffffff;" edge="1" parent="1" source="yNmEUhzYjuj3kyeLYS_d-115" target="yNmEUhzYjuj3kyeLYS_d-118">
          <mxGeometry relative="1" as="geometry" />
        </mxCell>
        <mxCell id="yNmEUhzYjuj3kyeLYS_d-114" value="START" style="edgeLabel;html=1;align=center;verticalAlign=middle;resizable=0;points=[];strokeColor=#001DBC;spacingLeft=15;spacingRight=15;spacingBottom=0;fontFamily=lexend light;fontSize=14;fontColor=#ffffff;fillColor=#0050ef;" vertex="1" connectable="0" parent="yNmEUhzYjuj3kyeLYS_d-113">
          <mxGeometry x="-0.1068" relative="1" as="geometry">
            <mxPoint as="offset" />
          </mxGeometry>
        </mxCell>
        <mxCell id="yNmEUhzYjuj3kyeLYS_d-115" value="FOR EACH&lt;div&gt;aerobic training day&lt;br&gt;&lt;/div&gt;" style="whiteSpace=wrap;html=1;fontFamily=lexend light;fontSize=14;spacingBottom=0;spacingLeft=15;spacingRight=15;shape=trapezoid;perimeter=trapezoidPerimeter;fixedSize=1;" vertex="1" parent="1">
          <mxGeometry x="5509.569999999999" y="828.75" width="218.25" height="70" as="geometry" />
        </mxCell>
        <mxCell id="yNmEUhzYjuj3kyeLYS_d-116" value="Return" style="ellipse;whiteSpace=wrap;html=1;rounded=0;fillColor=#a20025;fontColor=#ffffff;strokeColor=#6F0000;fontFamily=lexend light;fontSize=14;spacingBottom=0;spacingLeft=15;spacingRight=15;" vertex="1" parent="1">
          <mxGeometry x="5799.999999999999" y="823.75" width="80" height="80" as="geometry" />
        </mxCell>
        <mxCell id="yNmEUhzYjuj3kyeLYS_d-117" style="edgeStyle=orthogonalEdgeStyle;rounded=0;orthogonalLoop=1;jettySize=auto;html=1;exitX=0.5;exitY=1;exitDx=0;exitDy=0;entryX=0.25;entryY=0;entryDx=0;entryDy=0;fontFamily=lexend light;fontSize=14;fontColor=#ffffff;" edge="1" parent="1" source="yNmEUhzYjuj3kyeLYS_d-118" target="yNmEUhzYjuj3kyeLYS_d-99">
          <mxGeometry relative="1" as="geometry" />
        </mxCell>
        <mxCell id="yNmEUhzYjuj3kyeLYS_d-118" value="Next day" style="whiteSpace=wrap;html=1;fontFamily=lexend light;fontSize=14;spacingBottom=0;spacingLeft=15;spacingRight=15;" vertex="1" parent="1">
          <mxGeometry x="5635.389999999999" y="957.8299999999999" width="72.18" height="50" as="geometry" />
        </mxCell>
        <mxCell id="yNmEUhzYjuj3kyeLYS_d-119" value="&lt;font style=&quot;font-size: 28px;&quot;&gt;NEW AND IMPROVED&lt;/font&gt;" style="text;html=1;align=center;verticalAlign=middle;resizable=0;points=[];autosize=1;strokeColor=none;fillColor=none;fontFamily=lexend light;fontSize=14;fontColor=#ffffff;" vertex="1" parent="1">
          <mxGeometry x="5370" y="760.8299999999999" width="320" height="50" as="geometry" />
        </mxCell>
        <mxCell id="yNmEUhzYjuj3kyeLYS_d-120" value="&lt;font style=&quot;font-size: 28px;&quot;&gt;OLD AND BAD&lt;/font&gt;" style="text;html=1;align=center;verticalAlign=middle;resizable=0;points=[];autosize=1;strokeColor=none;fillColor=none;fontFamily=lexend light;fontSize=14;fontColor=#ffffff;" vertex="1" parent="1">
          <mxGeometry x="6150" y="752.8299999999999" width="220" height="50" as="geometry" />
        </mxCell>
      </root>
    </mxGraphModel>
  </diagram>
</mxfile>
